Mazius Display-Bold.ufo
<glyph name="exclam" format="2">
  <advance width="256"/>
  <unicode hex="0021"/>
  <outline>
    <contour>
      <point x="113" y="195" type="line"/>
      <point x="133" y="195" type="line"/>
      <point x="206" y="722" type="line"/>
      <point x="143" y="760" type="line"/>
      <point x="50" y="723" type="line"/>
    </contour>
    <component base="period" xOffset="17"/>
  </outline>
</glyph>
<glyph name="quotedbl" format="2">
  <advance width="342"/>
  <unicode hex="0022"/>
  <outline>
    <contour>
      <point x="71" y="568" type="line"/>
      <point x="92" y="568" type="line"/>
      <point x="155" y="824" type="line"/>
      <point x="105" y="849" type="line"/>
      <point x="25" y="825" type="line"/>
    </contour>
    <contour>
      <point x="233" y="568" type="line"/>
      <point x="254" y="568" type="line"/>
      <point x="317" y="824" type="line"/>
      <point x="267" y="849" type="line"/>
      <point x="187" y="825" type="line"/>
    </contour>
  </outline>
</glyph>
<glyph name="numbersign" format="2">
  <advance width="716"/>
  <unicode hex="0023"/>
  <outline>
    <contour>
      <point x="78" y="-88" type="line"/>
      <point x="136" y="-88" type="line"/>
      <point x="350" y="628" type="line"/>
      <point x="292" y="628" type="line"/>
    </contour>
    <contour>
      <point x="373" y="-88" type="line"/>
      <point x="431" y="-88" type="line"/>
      <point x="645" y="628" type="line"/>
      <point x="587" y="628" type="line"/>
    </contour>
    <contour>
      <point x="20" y="118" type="line"/>
      <point x="650" y="118" type="line"/>
      <point x="650" y="168" type="line"/>
      <point x="20" y="168" type="line"/>
    </contour>
    <contour>
      <point x="74" y="394" type="line"/>
      <point x="696" y="394" type="line"/>
      <point x="696" y="444" type="line"/>
      <point x="74" y="444" type="line"/>
    </contour>
  </outline>
</glyph>
<glyph name="ampersand" format="2">
  <advance width="741"/>
  <unicode hex="0026"/>
  <outline>
    <contour>
      <point x="490" y="140" type="line"/>
      <point x="509" y="129" type="line"/>
      <point x="657" y="359" type="line"/>
      <point x="630" y="371" type="line"/>
    </contour>
    <contour>
      <point x="137" y="380"/>
      <point x="415" y="26"/>
      <point x="573" y="-14" type="curve"/>
      <point x="741" y="118" type="line"/>
      <point x="728" y="132" type="line"/>
      <point x="643" y="74" type="line"/>
      <point x="547" y="150"/>
      <point x="251" y="421"/>
      <point x="251" y="588" type="curve" smooth="yes"/>
      <point x="251" y="622"/>
      <point x="262" y="639"/>
      <point x="299" y="639" type="curve" smooth="yes"/>
      <point x="344" y="639"/>
      <point x="383" y="612"/>
      <point x="405" y="573" type="curve"/>
      <point x="416" y="569" type="line"/>
      <point x="499" y="643" type="line"/>
      <point x="475" y="709"/>
      <point x="377" y="735"/>
      <point x="320" y="716" type="curve"/>
      <point x="137" y="547" type="line"/>
    </contour>
    <contour>
      <point x="447" y="79" type="curve"/>
      <point x="439" y="88" type="line"/>
      <point x="409" y="76"/>
      <point x="379" y="74"/>
      <point x="357" y="74" type="curve" smooth="yes"/>
      <point x="230" y="74"/>
      <point x="158" y="149"/>
      <point x="158" y="254" type="curve" smooth="yes"/>
      <point x="158" y="309"/>
      <point x="178" y="356"/>
      <point x="219" y="407" type="curve"/>
      <point x="213" y="418" type="line"/>
      <point x="121" y="359"/>
      <point x="30" y="285"/>
      <point x="30" y="182" type="curve" smooth="yes"/>
      <point x="30" y="78"/>
      <point x="119" y="-14"/>
      <point x="328" y="-14" type="curve"/>
      <point x="361" y="10"/>
      <point x="404" y="37"/>
    </contour>
  </outline>
</glyph>
<glyph name="parenleft" format="2">
  <advance width="367"/>
  <unicode hex="0028"/>
  <outline>
    <contour>
      <point x="318" y="750" type="line"/>
      <point x="149" y="684"/>
      <point x="38" y="495"/>
      <point x="38" y="253" type="curve" smooth="yes"/>
      <point x="38" y="-4"/>
      <point x="156" y="-206"/>
      <point x="336" y="-250" type="curve"/>
      <point x="342" y="-233" type="line"/>
      <point x="239" y="-199"/>
      <point x="177" y="24"/>
      <point x="177" y="287" type="curve" smooth="yes"/>
      <point x="177" y="435"/>
      <point x="180" y="668"/>
      <point x="326" y="735" type="curve"/>
    </contour>
  </outline>
</glyph>
<glyph name="asterisk" format="2">
  <advance width="362"/>
  <unicode hex="002A"/>
  <outline>
    <contour>
      <point x="145" y="416" type="line"/>
      <point x="185" y="401" type="line"/>
      <point x="223" y="417" type="line"/>
      <point x="184" y="578" type="line"/>
      <point x="223" y="737" type="line"/>
      <point x="185" y="750" type="line"/>
      <point x="145" y="738" type="line"/>
      <point x="177" y="578" type="line"/>
    </contour>
    <contour>
      <point x="29" y="533" type="line"/>
      <point x="33" y="486" type="line"/>
      <point x="72" y="472" type="line"/>
      <point x="182" y="574" type="line"/>
      <point x="333" y="617" type="line"/>
      <point x="332" y="659" type="line"/>
      <point x="307" y="679" type="line"/>
      <point x="177" y="583" type="line"/>
    </contour>
    <contour>
      <point x="333" y="534" type="line"/>
      <point x="185" y="583" type="line"/>
      <point x="60" y="679" type="line"/>
      <point x="30" y="659" type="line"/>
      <point x="29" y="617" type="line"/>
      <point x="180" y="574" type="line"/>
      <point x="296" y="472" type="line"/>
      <point x="329" y="486" type="line"/>
    </contour>
  </outline>
</glyph>
<glyph name="plus" format="2">
  <advance width="476"/>
  <unicode hex="002B"/>
  <outline>
    <contour>
      <point x="50" y="207" type="line"/>
      <point x="426" y="207" type="line"/>
      <point x="426" y="265" type="line"/>
      <point x="50" y="265" type="line"/>
    </contour>
    <contour>
      <point x="204" y="44" type="line"/>
      <point x="272" y="44" type="line"/>
      <point x="272" y="426" type="line"/>
      <point x="204" y="426" type="line"/>
    </contour>
  </outline>
</glyph>
<glyph name="comma" format="2">
  <advance width="236"/>
  <unicode hex="002C"/>
  <outline>
    <contour>
      <point x="107" y="-20" type="curve"/>
      <point x="144" y="1" type="line"/>
      <point x="151" y="-72"/>
      <point x="106" y="-122"/>
      <point x="76" y="-148" type="curve"/>
      <point x="85" y="-159" type="line"/>
      <point x="152" y="-108"/>
      <point x="201" y="-42"/>
      <point x="201" y="32" type="curve" smooth="yes"/>
      <point x="201" y="111"/>
      <point x="150" y="126"/>
      <point x="114" y="130" type="curve"/>
      <point x="62" y="110"/>
      <point x="35" y="82"/>
      <point x="35" y="47" type="curve" smooth="yes"/>
      <point x="35" y="24"/>
      <point x="46" y="-9"/>
    </contour>
  </outline>
</glyph>
<glyph name="hyphen" format="2">
  <advance width="362"/>
  <unicode hex="002D"/>
  <outline>
    <contour>
      <point x="40" y="301" type="line"/>
      <point x="40" y="240" type="line"/>
      <point x="322" y="240" type="line"/>
      <point x="322" y="300" type="line"/>
    </contour>
  </outline>
</glyph>
<glyph name="period" format="2">
  <advance width="222"/>
  <unicode hex="002E"/>
  <outline>
    <contour>
      <point x="113" y="-20" type="curve"/>
      <point x="162" y="1"/>
      <point x="187" y="36"/>
      <point x="187" y="66" type="curve" smooth="yes"/>
      <point x="187" y="104"/>
      <point x="154" y="128"/>
      <point x="108" y="130" type="curve"/>
      <point x="60" y="109"/>
      <point x="35" y="81"/>
      <point x="35" y="47" type="curve" smooth="yes"/>
      <point x="35" y="7"/>
      <point x="68" y="-15"/>
    </contour>
  </outline>
</glyph>
<glyph name="slash" format="2">
  <advance width="518"/>
  <unicode hex="002F"/>
  <outline>
    <contour>
      <point x="30" y="-250" type="line"/>
      <point x="92" y="-250" type="line"/>
      <point x="498" y="750" type="line"/>
      <point x="436" y="750" type="line"/>
    </contour>
  </outline>
</glyph>
<glyph name="zero" format="2">
  <advance width="553"/>
  <unicode hex="0030"/>
  <outline>
    <contour>
      <point x="277" y="-14" type="curve" smooth="yes"/>
      <point x="405" y="-14"/>
      <point x="518" y="101"/>
      <point x="518" y="234" type="curve" smooth="yes"/>
      <point x="518" y="392"/>
      <point x="417" y="494"/>
      <point x="277" y="494" type="curve" smooth="yes"/>
      <point x="149" y="494"/>
      <point x="35" y="376"/>
      <point x="35" y="234" type="curve" smooth="yes"/>
      <point x="35" y="83"/>
      <point x="137" y="-14"/>
    </contour>
    <contour>
      <point x="277" y="69" type="curve" smooth="yes"/>
      <point x="190" y="69"/>
      <point x="119" y="143"/>
      <point x="120" y="236" type="curve" smooth="yes"/>
      <point x="121" y="337"/>
      <point x="190" y="411"/>
      <point x="277" y="411" type="curve" smooth="yes"/>
      <point x="364" y="411"/>
      <point x="432" y="337"/>
      <point x="433" y="236" type="curve" smooth="yes"/>
      <point x="434" y="143"/>
      <point x="364" y="69"/>
    </contour>
  </outline>
</glyph>
<glyph name="one" format="2">
  <advance width="396"/>
  <unicode hex="0031"/>
  <outline>
    <contour>
      <point x="273" y="0" type="line" name="_corner03"/>
      <point x="273" y="480" type="line" name="_corner00"/>
      <point x="123" y="480" type="line" name="_corner01"/>
      <point x="123" y="0" type="line" name="_corner02"/>
    </contour>
  </outline>
</glyph>
<glyph name="two" format="2">
  <advance width="514"/>
  <unicode hex="0032"/>
  <outline>
    <contour>
      <point x="253" y="309" type="curve" smooth="yes"/>
      <point x="253" y="194"/>
      <point x="159" y="110"/>
      <point x="86" y="49" type="curve"/>
      <point x="78" y="30" type="line"/>
      <point x="227" y="115"/>
      <point x="420" y="232"/>
      <point x="420" y="367" type="curve" smooth="yes"/>
      <point x="420" y="443"/>
      <point x="353" y="494"/>
      <point x="234" y="494" type="curve"/>
      <point x="146" y="480"/>
      <point x="77" y="434"/>
      <point x="30" y="390" type="curve"/>
      <point x="39" y="375" type="line"/>
      <point x="74" y="403"/>
      <point x="116" y="415"/>
      <point x="154" y="415" type="curve" smooth="yes"/>
      <point x="212" y="415"/>
      <point x="253" y="382"/>
    </contour>
    <contour>
      <point x="86" y="49" type="line"/>
      <point x="32" y="6" type="line"/>
      <point x="32" y="0" type="line"/>
      <point x="398" y="0" type="line"/>
      <point x="504" y="151" type="line"/>
      <point x="491" y="160" type="line"/>
      <point x="463" y="123" type="line"/>
      <point x="169" y="73" type="line"/>
    </contour>
  </outline>
</glyph>
<glyph name="three" format="2">
  <advance width="538"/>
  <unicode hex="0033"/>
  <outline>
    <contour>
      <point x="49" y="322" type="line"/>
      <point x="64" y="312" type="line"/>
      <point x="106" y="365" type="line"/>
      <point x="344" y="364" type="line"/>
      <point x="140" y="124" type="line"/>
      <point x="154" y="113" type="line"/>
      <point x="481" y="480" type="line"/>
      <point x="172" y="480" type="line"/>
    </contour>
    <contour>
      <point x="35" y="-84" type="line"/>
      <point x="45" y="-158"/>
      <point x="101" y="-234"/>
      <point x="206" y="-234" type="curve"/>
      <point x="301" y="-194"/>
      <point x="488" y="-124"/>
      <point x="488" y="37" type="curve" smooth="yes"/>
      <point x="488" y="148"/>
      <point x="404" y="224"/>
      <point x="248" y="224" type="curve"/>
      <point x="156" y="123" type="line"/>
      <point x="263" y="132"/>
      <point x="363" y="73"/>
      <point x="357" y="-53" type="curve" smooth="yes"/>
      <point x="354" y="-119"/>
      <point x="321" y="-164"/>
      <point x="269" y="-164" type="curve" smooth="yes"/>
      <point x="207" y="-164"/>
      <point x="153" y="-102"/>
      <point x="153" y="-18" type="curve"/>
      <point x="133" y="-14" type="line"/>
    </contour>
  </outline>
</glyph>
<glyph name="four" format="2">
  <advance width="572"/>
  <unicode hex="0034"/>
  <outline>
    <contour>
      <point x="284" y="490" type="line"/>
      <point x="229" y="356"/>
      <point x="117" y="167"/>
      <point x="10" y="-10" type="curve"/>
      <point x="159" y="10" type="line"/>
      <point x="449" y="479" type="line"/>
      <point x="443" y="490" type="line"/>
    </contour>
    <contour>
      <point x="37" y="15" type="line"/>
      <point x="10" y="-10" type="line"/>
      <point x="552" y="-1" type="line"/>
      <point x="552" y="24" type="line"/>
    </contour>
    <contour>
      <point x="452" y="-214" type="line"/>
      <point x="452" y="154" type="line"/>
      <point x="429" y="170" type="line"/>
      <point x="323" y="147" type="line"/>
      <point x="323" y="-254" type="line"/>
      <point x="445" y="-221" type="line"/>
    </contour>
  </outline>
</glyph>
<glyph name="five" format="2">
  <advance width="537"/>
  <unicode hex="0035"/>
  <outline>
    <contour>
      <point x="84" y="141" type="line"/>
      <point x="97" y="141" type="line"/>
      <point x="119" y="164" type="line"/>
      <point x="157" y="365" type="line"/>
      <point x="422" y="363" type="line"/>
      <point x="487" y="476" type="line"/>
      <point x="485" y="480" type="line"/>
      <point x="140" y="480" type="line"/>
    </contour>
    <contour>
      <point x="30" y="-84" type="line"/>
      <point x="40" y="-158"/>
      <point x="96" y="-234"/>
      <point x="201" y="-234" type="curve"/>
      <point x="296" y="-194"/>
      <point x="483" y="-124"/>
      <point x="483" y="37" type="curve" smooth="yes"/>
      <point x="483" y="166"/>
      <point x="380" y="254"/>
      <point x="185" y="254" type="curve"/>
      <point x="93" y="141" type="line"/>
      <point x="215" y="152"/>
      <point x="359" y="94"/>
      <point x="352" y="-53" type="curve" smooth="yes"/>
      <point x="349" y="-119"/>
      <point x="316" y="-164"/>
      <point x="264" y="-164" type="curve" smooth="yes"/>
      <point x="202" y="-164"/>
      <point x="148" y="-102"/>
      <point x="148" y="-18" type="curve"/>
      <point x="128" y="-14" type="line"/>
    </contour>
  </outline>
</glyph>
<glyph name="six" format="2">
  <advance width="603"/>
  <unicode hex="0036"/>
  <outline>
    <contour>
      <point x="139" y="-55"/>
      <point x="50" y="88"/>
      <point x="50" y="242" type="curve" smooth="yes"/>
      <point x="50" y="459"/>
      <point x="264" y="677"/>
      <point x="456" y="776" type="curve"/>
      <point x="470" y="756" type="line"/>
      <point x="330" y="703"/>
      <point x="191" y="483"/>
      <point x="191" y="300" type="curve" smooth="yes"/>
      <point x="191" y="174"/>
      <point x="238" y="32"/>
      <point x="359" y="32" type="curve" smooth="yes"/>
      <point x="414" y="32"/>
      <point x="427" y="99"/>
      <point x="427" y="152" type="curve" smooth="yes"/>
      <point x="427" y="380"/>
      <point x="253" y="377"/>
      <point x="213" y="299" type="curve"/>
      <point x="196" y="304" type="line"/>
      <point x="224" y="373"/>
      <point x="330" y="448"/>
      <point x="340" y="455" type="curve"/>
      <point x="450" y="480"/>
      <point x="553" y="399"/>
      <point x="553" y="270" type="curve" smooth="yes"/>
      <point x="553" y="99"/>
      <point x="383" y="2"/>
      <point x="341" y="-12" type="curve"/>
    </contour>
  </outline>
</glyph>
<glyph name="seven" format="2">
  <advance width="542"/>
  <unicode hex="0037"/>
  <outline>
    <contour>
      <point x="20" y="270" type="line"/>
      <point x="141" y="480" type="line"/>
      <point x="502" y="480" type="line"/>
      <point x="226" y="-238" type="line"/>
      <point x="68" y="-236" type="line"/>
      <point x="414" y="340" type="line"/>
      <point x="89" y="341" type="line"/>
      <point x="35" y="261" type="line"/>
    </contour>
  </outline>
</glyph>
<glyph name="eight" format="2">
  <advance width="550"/>
  <unicode hex="0038"/>
  <outline>
    <contour>
      <point x="63" y="527" type="curve" smooth="yes"/>
      <point x="63" y="345"/>
      <point x="390" y="233"/>
      <point x="390" y="93" type="curve" smooth="yes"/>
      <point x="390" y="42"/>
      <point x="348" y="3"/>
      <point x="293" y="3" type="curve" smooth="yes"/>
      <point x="223" y="3"/>
      <point x="167" y="76"/>
      <point x="167" y="177" type="curve" smooth="yes"/>
      <point x="167" y="263"/>
      <point x="184" y="307"/>
      <point x="218" y="332" type="curve"/>
      <point x="209" y="336" type="line"/>
      <point x="182" y="328"/>
      <point x="40" y="281"/>
      <point x="40" y="145" type="curve" smooth="yes"/>
      <point x="40" y="18"/>
      <point x="196" y="-20"/>
      <point x="304" y="-20" type="curve"/>
      <point x="335" y="-13"/>
      <point x="510" y="17"/>
      <point x="510" y="178" type="curve" smooth="yes"/>
      <point x="510" y="287"/>
      <point x="411" y="342"/>
      <point x="334" y="394" type="curve"/>
      <point x="382" y="394"/>
      <point x="484" y="455"/>
      <point x="484" y="563" type="curve" smooth="yes"/>
      <point x="484" y="671"/>
      <point x="378" y="712"/>
      <point x="285" y="712" type="curve"/>
      <point x="251" y="706"/>
      <point x="63" y="665"/>
    </contour>
    <contour>
      <point x="188" y="587" type="curve" smooth="yes"/>
      <point x="188" y="643"/>
      <point x="221" y="685"/>
      <point x="277" y="685" type="curve" smooth="yes"/>
      <point x="334" y="685"/>
      <point x="373" y="640"/>
      <point x="373" y="540" type="curve" smooth="yes"/>
      <point x="373" y="475"/>
      <point x="354" y="438"/>
      <point x="321" y="403" type="curve"/>
      <point x="285" y="425"/>
      <point x="188" y="490"/>
    </contour>
  </outline>
</glyph>
<glyph name="nine" format="2">
  <advance width="603"/>
  <unicode hex="0039"/>
  <outline>
    <contour>
      <point x="464" y="541"/>
      <point x="553" y="398"/>
      <point x="553" y="244" type="curve" smooth="yes"/>
      <point x="553" y="27"/>
      <point x="339" y="-191"/>
      <point x="147" y="-290" type="curve"/>
      <point x="133" y="-270" type="line"/>
      <point x="273" y="-217"/>
      <point x="412" y="3"/>
      <point x="412" y="186" type="curve" smooth="yes"/>
      <point x="412" y="312"/>
      <point x="365" y="454"/>
      <point x="244" y="454" type="curve" smooth="yes"/>
      <point x="189" y="454"/>
      <point x="176" y="387"/>
      <point x="176" y="334" type="curve" smooth="yes"/>
      <point x="176" y="106"/>
      <point x="350" y="109"/>
      <point x="390" y="187" type="curve"/>
      <point x="407" y="182" type="line"/>
      <point x="379" y="113"/>
      <point x="273" y="38"/>
      <point x="263" y="31" type="curve"/>
      <point x="153" y="6"/>
      <point x="50" y="87"/>
      <point x="50" y="216" type="curve" smooth="yes"/>
      <point x="50" y="387"/>
      <point x="220" y="484"/>
      <point x="262" y="498" type="curve"/>
    </contour>
  </outline>
</glyph>
<glyph name="greater" format="2">
  <advance width="453"/>
  <unicode hex="003E"/>
  <outline>
    <contour>
      <point x="71" y="58" type="line"/>
      <point x="403" y="210" type="line"/>
      <point x="403" y="251" type="line"/>
      <point x="73" y="412" type="line"/>
      <point x="52" y="363" type="line"/>
      <point x="324" y="231" type="line"/>
      <point x="50" y="109" type="line"/>
    </contour>
  </outline>
</glyph>
<glyph name="question" format="2">
  <advance width="468"/>
  <unicode hex="003F"/>
  <outline>
    <contour>
      <point x="53" y="593" type="line"/>
      <point x="108" y="652"/>
      <point x="173" y="690"/>
      <point x="230" y="712" type="curve"/>
      <point x="358" y="710"/>
      <point x="449" y="655"/>
      <point x="449" y="550" type="curve" smooth="yes"/>
      <point x="449" y="457"/>
      <point x="380" y="372"/>
      <point x="271" y="337" type="curve"/>
      <point x="277" y="297"/>
      <point x="292" y="272"/>
      <point x="318" y="254" type="curve"/>
      <point x="318" y="246" type="line"/>
      <point x="229" y="195" type="line"/>
      <point x="196" y="215"/>
      <point x="181" y="248"/>
      <point x="175" y="296" type="curve"/>
      <point x="272" y="356"/>
      <point x="319" y="408"/>
      <point x="319" y="495" type="curve" smooth="yes"/>
      <point x="319" y="576"/>
      <point x="269" y="622"/>
      <point x="190" y="623" type="curve" smooth="yes"/>
      <point x="149" y="623"/>
      <point x="101" y="611"/>
      <point x="62" y="581" type="curve"/>
    </contour>
    <component base="period" xOffset="132" yOffset="-3"/>
  </outline>
</glyph>
<glyph name="at" format="2">
  <advance width="952"/>
  <unicode hex="0040"/>
  <outline>
    <contour>
      <point x="551" y="69" type="curve"/>
      <point x="572" y="55" type="line"/>
      <point x="772" y="188"/>
      <point x="917" y="268"/>
      <point x="917" y="446" type="curve" smooth="yes"/>
      <point x="917" y="650"/>
      <point x="746" y="766"/>
      <point x="513" y="766" type="curve"/>
      <point x="431" y="706"/>
      <point x="33" y="569"/>
      <point x="33" y="213" type="curve" smooth="yes"/>
      <point x="33" y="-43"/>
      <point x="244" y="-166"/>
      <point x="493" y="-166" type="curve"/>
      <point x="610" y="-93"/>
      <point x="717" y="-30"/>
      <point x="790" y="58" type="curve"/>
      <point x="777" y="66" type="line"/>
      <point x="693" y="-9"/>
      <point x="628" y="-44"/>
      <point x="577" y="-67" type="curve"/>
      <point x="271" y="-67"/>
      <point x="143" y="30"/>
      <point x="143" y="264" type="curve" smooth="yes"/>
      <point x="143" y="516"/>
      <point x="290" y="667"/>
      <point x="503" y="667" type="curve" smooth="yes"/>
      <point x="700" y="667"/>
      <point x="803" y="578"/>
      <point x="803" y="419" type="curve" smooth="yes"/>
      <point x="803" y="272"/>
      <point x="706" y="171"/>
    </contour>
    <contour>
      <point x="555" y="50" type="line"/>
      <point x="572" y="55" type="line"/>
      <point x="685" y="139" type="line"/>
      <point x="678" y="149" type="line"/>
      <point x="597" y="100" type="line"/>
      <point x="712" y="528" type="line"/>
      <point x="670" y="552"/>
      <point x="601" y="572"/>
      <point x="545" y="572" type="curve"/>
      <point x="387" y="520"/>
      <point x="223" y="372"/>
      <point x="223" y="220" type="curve" smooth="yes"/>
      <point x="223" y="131"/>
      <point x="274" y="64"/>
      <point x="336" y="54" type="curve"/>
      <point x="423" y="117"/>
      <point x="481" y="272"/>
      <point x="561" y="480" type="curve"/>
      <point x="565" y="479" type="line"/>
      <point x="459" y="104" type="line"/>
    </contour>
    <contour>
      <point x="395" y="164" type="curve"/>
      <point x="372" y="176"/>
      <point x="357" y="211"/>
      <point x="357" y="265" type="curve" smooth="yes"/>
      <point x="357" y="385"/>
      <point x="417" y="492"/>
      <point x="497" y="532" type="curve"/>
      <point x="515" y="532"/>
      <point x="535" y="520"/>
      <point x="551" y="504" type="curve"/>
      <point x="511" y="396"/>
      <point x="459" y="248"/>
    </contour>
  </outline>
</glyph>
<glyph name="A" format="2">
  <advance width="755"/>
  <unicode hex="0041"/>
  <anchor x="382" y="0" name="bottom"/>
  <anchor x="624" y="10" name="ogonek"/>
  <anchor x="354" y="700" name="top"/>
  <outline>
    <contour>
      <point x="515" y="0" type="line" name="_corner02"/>
      <point x="691" y="0" type="line" name="_corner03"/>
      <point x="456" y="710" type="line"/>
      <point x="326" y="705" type="line"/>
      <point x="70" y="0" type="line" name="_corner00"/>
      <point x="105" y="0" type="line" name="_corner01"/>
      <point x="327" y="619" type="line"/>
    </contour>
    <contour>
      <point x="178" y="240" type="line"/>
      <point x="510" y="240" type="line"/>
      <point x="505" y="266" type="line"/>
      <point x="191" y="266" type="line"/>
    </contour>
    <contour>
      <point x="323" y="661" type="line"/>
      <point x="332" y="705" type="line"/>
      <point x="222" y="705" type="line"/>
      <point x="222" y="689" type="line"/>
    </contour>
  </outline>
</glyph>
<glyph name="B" format="2">
  <advance width="682"/>
  <unicode hex="0042"/>
  <anchor x="352" y="0" name="bottom"/>
  <anchor x="352" y="350" name="center"/>
  <anchor x="352" y="700" name="top"/>
  <outline>
    <contour>
      <point x="271" y="390" type="curve"/>
      <point x="271" y="666" type="line"/>
      <point x="288" y="671"/>
      <point x="302" y="676"/>
      <point x="328" y="676" type="curve" smooth="yes"/>
      <point x="405" y="676"/>
      <point x="468" y="620"/>
      <point x="468" y="548" type="curve" smooth="yes"/>
      <point x="468" y="457"/>
      <point x="409" y="381"/>
      <point x="334" y="381" type="curve" smooth="yes"/>
      <point x="307" y="381"/>
      <point x="279" y="388"/>
    </contour>
    <contour>
      <point x="271" y="372" type="line"/>
      <point x="377" y="362" type="line"/>
      <point x="460" y="375"/>
      <point x="633" y="409"/>
      <point x="632" y="560" type="curve" smooth="yes"/>
      <point x="631" y="670"/>
      <point x="495" y="702"/>
      <point x="349" y="701" type="curve"/>
      <point x="112" y="700" type="line" name="_corner00"/>
      <point x="112" y="0" type="line" name="_corner01"/>
      <point x="271" y="0" type="line"/>
    </contour>
    <contour>
      <point x="241" y="377" type="line"/>
      <point x="241" y="348" type="line"/>
      <point x="253" y="352"/>
      <point x="294" y="360"/>
      <point x="334" y="360" type="curve" smooth="yes"/>
      <point x="426" y="359"/>
      <point x="498" y="282"/>
      <point x="498" y="187" type="curve" smooth="yes"/>
      <point x="498" y="99"/>
      <point x="446" y="26"/>
      <point x="379" y="26" type="curve" smooth="yes"/>
      <point x="328" y="26"/>
      <point x="267" y="43"/>
      <point x="241" y="63" type="curve"/>
      <point x="241" y="0" type="line"/>
      <point x="360" y="0" type="line" smooth="yes"/>
      <point x="471" y="0"/>
      <point x="662" y="31"/>
      <point x="662" y="194" type="curve" smooth="yes"/>
      <point x="662" y="332"/>
      <point x="495" y="386"/>
      <point x="399" y="383" type="curve"/>
    </contour>
  </outline>
</glyph>
<glyph name="C" format="2">
  <advance width="652"/>
  <unicode hex="0043"/>
  <anchor x="342" y="0" name="bottom"/>
  <anchor x="340" y="700" name="top"/>
  <outline>
    <contour>
      <point x="39" y="321" type="curve" smooth="yes"/>
      <point x="39" y="111"/>
      <point x="180" y="-7"/>
      <point x="389" y="-14" type="curve"/>
      <point x="493" y="41"/>
      <point x="587" y="107"/>
      <point x="642" y="154" type="curve"/>
      <point x="633" y="169" type="line"/>
      <point x="563" y="122"/>
      <point x="528" y="101"/>
      <point x="461" y="66" type="curve"/>
      <point x="284" y="66"/>
      <point x="190" y="234"/>
      <point x="190" y="426" type="curve" smooth="yes"/>
      <point x="190" y="563"/>
      <point x="237" y="652"/>
      <point x="359" y="652" type="curve" smooth="yes"/>
      <point x="472" y="652"/>
      <point x="562" y="579"/>
      <point x="598" y="476" type="curve"/>
      <point x="612" y="477" type="line"/>
      <point x="609" y="685" type="line"/>
      <point x="542" y="704"/>
      <point x="492" y="714"/>
      <point x="387" y="714" type="curve"/>
      <point x="246" y="668"/>
      <point x="39" y="544"/>
    </contour>
  </outline>
</glyph>
<glyph name="D" format="2">
  <advance width="781"/>
  <unicode hex="0044"/>
  <anchor x="393" y="0" name="bottom"/>
  <anchor x="393" y="350" name="center"/>
  <anchor x="393" y="700" name="top"/>
  <outline>
    <contour>
      <point x="112" y="0" type="line" name="_corner01"/>
      <point x="266" y="0" type="line"/>
      <point x="375" y="-5" type="line"/>
      <point x="454" y="-2"/>
      <point x="748" y="92"/>
      <point x="748" y="373" type="curve" smooth="yes"/>
      <point x="748" y="589"/>
      <point x="612" y="700"/>
      <point x="383" y="700" type="curve" smooth="yes"/>
      <point x="112" y="700" type="line" name="_corner00"/>
    </contour>
    <contour>
      <point x="266" y="69" type="curve"/>
      <point x="266" y="659" type="line"/>
      <point x="286" y="668"/>
      <point x="320" y="675"/>
      <point x="342" y="675" type="curve" smooth="yes"/>
      <point x="469" y="675"/>
      <point x="578" y="532"/>
      <point x="578" y="362" type="curve" smooth="yes"/>
      <point x="578" y="178"/>
      <point x="491" y="25"/>
      <point x="385" y="25" type="curve" smooth="yes"/>
      <point x="345" y="25"/>
      <point x="289" y="47"/>
    </contour>
  </outline>
</glyph>
<glyph name="E" format="2">
  <advance width="656"/>
  <unicode hex="0045"/>
  <anchor x="331" y="0" name="bottom"/>
  <anchor x="538" y="10" name="ogonek"/>
  <anchor x="331" y="700" name="top"/>
  <anchor x="25" y="700" name="topleft"/>
  <outline>
    <contour>
      <point x="112" y="700" type="line" name="_corner00"/>
      <point x="112" y="0" type="line" name="_corner01"/>
      <point x="268" y="0" type="line"/>
      <point x="268" y="700" type="line"/>
    </contour>
    <contour>
      <point x="223" y="25" type="line"/>
      <point x="215" y="0" type="line"/>
      <point x="594" y="0" type="line"/>
      <point x="616" y="185" type="line"/>
      <point x="601" y="188" type="line"/>
      <point x="583" y="157"/>
      <point x="504" y="57"/>
      <point x="461" y="25" type="curve"/>
    </contour>
    <contour>
      <point x="223" y="375" type="line"/>
      <point x="215" y="350" type="line"/>
      <point x="413" y="350" type="line"/>
      <point x="467" y="235" type="line"/>
      <point x="486" y="235" type="line"/>
      <point x="486" y="493" type="line"/>
      <point x="467" y="493" type="line"/>
      <point x="413" y="375" type="line"/>
    </contour>
    <contour>
      <point x="223" y="675" type="line"/>
      <point x="454" y="675" type="line"/>
      <point x="500" y="639"/>
      <point x="579" y="546"/>
      <point x="596" y="516" type="curve"/>
      <point x="612" y="516" type="line"/>
      <point x="596" y="703" type="line"/>
      <point x="560" y="700" type="line"/>
      <point x="215" y="700" type="line"/>
    </contour>
  </outline>
</glyph>
<glyph name="F" format="2">
  <advance width="619"/>
  <unicode hex="0046"/>
  <anchor x="283" y="0" name="bottom"/>
  <anchor x="283" y="700" name="top"/>
  <outline>
    <contour>
      <point x="112" y="700" type="line" name="_corner01"/>
      <point x="112" y="0" type="line" name="_corner00"/>
      <point x="268" y="0" type="line" name="_corner02"/>
      <point x="268" y="700" type="line"/>
    </contour>
    <contour>
      <point x="596" y="703" type="line"/>
      <point x="427" y="689" type="line"/>
      <point x="457" y="690"/>
      <point x="575" y="553"/>
      <point x="596" y="516" type="curve"/>
      <point x="612" y="516" type="line"/>
    </contour>
    <contour>
      <point x="223" y="674" type="line"/>
      <point x="570" y="674" type="line"/>
      <point x="572" y="700" type="line"/>
      <point x="215" y="700" type="line"/>
    </contour>
    <contour>
      <point x="223" y="355" type="line"/>
      <point x="215" y="330" type="line"/>
      <point x="413" y="330" type="line"/>
      <point x="467" y="200" type="line"/>
      <point x="486" y="200" type="line"/>
      <point x="486" y="473" type="line"/>
      <point x="467" y="473" type="line"/>
      <point x="413" y="355" type="line"/>
    </contour>
  </outline>
</glyph>
<glyph name="G" format="2">
  <advance width="722"/>
  <unicode hex="0047"/>
  <anchor x="364" y="0" name="bottom"/>
  <anchor x="364" y="700" name="top"/>
  <outline>
    <contour>
      <point x="523" y="75" type="line"/>
      <point x="648" y="154" type="line"/>
      <point x="648" y="328" type="line" name="_corner00"/>
      <point x="522" y="328" type="line" name="_corner01"/>
    </contour>
    <contour>
      <point x="39" y="321" type="curve" smooth="yes"/>
      <point x="39" y="111"/>
      <point x="175" y="-7"/>
      <point x="394" y="-14" type="curve"/>
      <point x="498" y="41"/>
      <point x="592" y="107"/>
      <point x="647" y="154" type="curve"/>
      <point x="638" y="169" type="line"/>
      <point x="570" y="117"/>
      <point x="545" y="96"/>
      <point x="476" y="59" type="curve"/>
      <point x="268" y="69"/>
      <point x="190" y="216"/>
      <point x="190" y="427" type="curve" smooth="yes"/>
      <point x="190" y="564"/>
      <point x="242" y="653"/>
      <point x="364" y="653" type="curve" smooth="yes"/>
      <point x="483" y="653"/>
      <point x="573" y="579"/>
      <point x="609" y="476" type="curve"/>
      <point x="623" y="477" type="line"/>
      <point x="620" y="685" type="line"/>
      <point x="553" y="704"/>
      <point x="503" y="714"/>
      <point x="392" y="714" type="curve"/>
      <point x="251" y="668"/>
      <point x="39" y="544"/>
    </contour>
  </outline>
</glyph>
<glyph name="H" format="2">
  <advance width="817"/>
  <unicode hex="0048"/>
  <anchor x="390" y="0" name="bottom"/>
  <anchor x="390" y="350" name="center"/>
  <anchor x="390" y="700" name="top"/>
  <anchor x="63" y="700" name="topleft"/>
  <outline>
    <contour>
      <point x="112" y="700" type="line" name="_corner00"/>
      <point x="112" y="0" type="line" name="_corner07"/>
      <point x="270" y="0" type="line" name="_corner02"/>
      <point x="270" y="700" type="line" name="_corner06"/>
    </contour>
    <contour>
      <point x="199" y="370" type="line"/>
      <point x="191" y="344" type="line"/>
      <point x="619" y="344" type="line"/>
      <point x="619" y="370" type="line"/>
    </contour>
    <contour>
      <point x="547" y="700" type="line" name="_corner01"/>
      <point x="547" y="0" type="line" name="_corner04"/>
      <point x="705" y="0" type="line" name="_corner03"/>
      <point x="705" y="700" type="line" name="_corner05"/>
    </contour>
  </outline>
</glyph>
<glyph name="I" format="2">
  <advance width="382"/>
  <unicode hex="0049"/>
  <anchor x="191" y="0" name="bottom"/>
  <anchor x="295" y="10" name="ogonek"/>
  <anchor x="191" y="700" name="top"/>
  <anchor x="25" y="700" name="topleft"/>
  <outline>
    <contour>
      <point x="112" y="700" type="line" name="_corner03"/>
      <point x="112" y="0" type="line" name="_corner00"/>
      <point x="270" y="0" type="line" name="_corner01"/>
      <point x="270" y="700" type="line" name="_corner02"/>
    </contour>
  </outline>
</glyph>
<glyph name="J" format="2">
  <advance width="338"/>
  <unicode hex="004A"/>
  <anchor x="169" y="0" name="bottom"/>
  <anchor x="169" y="700" name="top"/>
  <outline>
    <contour>
      <point x="-45" y="-93" type="curve"/>
      <point x="-99" y="-95" type="line"/>
      <point x="-167" y="-228" type="line"/>
      <point x="-96" y="-277"/>
      <point x="-45" y="-273"/>
      <point x="9" y="-256" type="curve"/>
      <point x="102" y="-214"/>
      <point x="234" y="-112"/>
      <point x="247" y="-1" type="curve"/>
      <point x="250" y="700" type="line" name="_corner00"/>
      <point x="93" y="700" type="line" name="_corner01"/>
      <point x="88" y="-178" type="line"/>
      <point x="80" y="-194"/>
      <point x="68" y="-200"/>
      <point x="55" y="-200" type="curve" smooth="yes"/>
      <point x="20" y="-200"/>
      <point x="-11" y="-170"/>
    </contour>
  </outline>
</glyph>
<glyph name="K" format="2">
  <advance width="727"/>
  <unicode hex="004B"/>
  <anchor x="391" y="0" name="bottom"/>
  <anchor x="391" y="700" name="top"/>
  <outline>
    <contour>
      <point x="112" y="700" type="line" name="_corner01"/>
      <point x="112" y="0" type="line" name="_corner04"/>
      <point x="270" y="0" type="line" name="_corner05"/>
      <point x="270" y="318" type="line"/>
      <point x="270" y="700" type="line" name="_corner00"/>
    </contour>
    <contour>
      <point x="125" y="184" type="line"/>
      <point x="132" y="157" type="line"/>
      <point x="649" y="700" type="line" name="_corner02"/>
      <point x="616" y="700" type="line" name="_corner03"/>
    </contour>
    <contour>
      <point x="449" y="406" type="curve"/>
      <point x="301" y="357" type="line"/>
      <point x="504" y="0" type="line"/>
      <point x="692" y="-1" type="line"/>
      <point x="761" y="47" type="line"/>
      <point x="747" y="62" type="line"/>
      <point x="686" y="25" type="line"/>
      <point x="654" y="25"/>
      <point x="506" y="312"/>
    </contour>
  </outline>
</glyph>
<glyph name="L" format="2">
  <advance width="626"/>
  <unicode hex="004C"/>
  <anchor x="313" y="0" name="bottom"/>
  <anchor x="313" y="350" name="center"/>
  <anchor x="190" y="700" name="top"/>
  <anchor x="441" y="700" name="topright"/>
  <outline>
    <contour>
      <point x="112" y="700" type="line" name="_corner00"/>
      <point x="112" y="0" type="line" name="_corner02"/>
      <point x="271" y="0" type="line"/>
      <point x="271" y="700" type="line" name="_corner01"/>
    </contour>
    <contour>
      <point x="223" y="25" type="line"/>
      <point x="223" y="0" type="line"/>
      <point x="592" y="0" type="line"/>
      <point x="577" y="35" type="line"/>
    </contour>
    <contour>
      <point x="594" y="0" type="line"/>
      <point x="616" y="225" type="line"/>
      <point x="597" y="230" type="line"/>
      <point x="579" y="193"/>
      <point x="465" y="14"/>
      <point x="435" y="15" type="curve"/>
    </contour>
  </outline>
</glyph>
<glyph name="M" format="2">
  <advance width="968"/>
  <unicode hex="004D"/>
  <guideline x="166" y="654" angle="0"/>
  <anchor x="434" y="0" name="bottom"/>
  <anchor x="434" y="700" name="top"/>
  <outline>
    <contour>
      <point x="437" y="-2" type="line"/>
      <point x="449" y="-2" type="line"/>
      <point x="718" y="700" type="line"/>
      <point x="683" y="700" type="line"/>
      <point x="506" y="236" type="line"/>
      <point x="309" y="700" type="line"/>
      <point x="126" y="700" type="line"/>
    </contour>
    <contour>
      <point x="112" y="700" type="line" name="_corner02"/>
      <point x="112" y="-1" type="line" name="_corner00"/>
      <point x="146" y="-1" type="line" name="_corner01"/>
      <point x="146" y="700" type="line"/>
    </contour>
    <contour>
      <point x="698" y="700" type="line"/>
      <point x="698" y="0" type="line" name="_corner03"/>
      <point x="856" y="0" type="line" name="_corner04"/>
      <point x="856" y="700" type="line" name="_corner05"/>
    </contour>
  </outline>
</glyph>
<glyph name="N" format="2">
  <advance width="748"/>
  <unicode hex="004E"/>
  <anchor x="361" y="0" name="bottom"/>
  <anchor x="361" y="700" name="top"/>
  <outline>
    <contour>
      <point x="623" y="0" type="line"/>
      <point x="634" y="0" type="line"/>
      <point x="627" y="246" type="line"/>
      <point x="264" y="703" type="line"/>
      <point x="122" y="700" type="line"/>
      <point x="125" y="616" type="line"/>
    </contour>
    <contour>
      <point x="112" y="700" type="line" name="_corner04"/>
      <point x="112" y="0" type="line" name="_corner00"/>
      <point x="142" y="0" type="line" name="_corner01"/>
      <point x="137" y="700" type="line"/>
    </contour>
    <contour>
      <point x="623" y="0" type="line"/>
      <point x="646" y="0" type="line"/>
      <point x="646" y="702" type="line" name="_corner02"/>
      <point x="617" y="702" type="line" name="_corner03"/>
    </contour>
  </outline>
</glyph>
<glyph name="O" format="2">
  <advance width="788"/>
  <unicode hex="004F"/>
  <anchor x="424" y="0" name="bottom"/>
  <anchor x="424" y="350" name="center"/>
  <anchor x="740" y="10" name="ogonek"/>
  <anchor x="406" y="700" name="top"/>
  <anchor x="48" y="700" name="topleft"/>
  <anchor x="799" y="700" name="topright"/>
  <outline>
    <contour>
      <point x="422" y="36" type="curve" smooth="yes"/>
      <point x="279" y="36"/>
      <point x="204" y="190"/>
      <point x="204" y="394" type="curve" smooth="yes"/>
      <point x="204" y="520"/>
      <point x="233" y="660"/>
      <point x="366" y="660" type="curve" smooth="yes"/>
      <point x="514" y="660"/>
      <point x="588" y="501"/>
      <point x="588" y="318" type="curve" smooth="yes"/>
      <point x="588" y="190"/>
      <point x="560" y="36"/>
    </contour>
    <contour>
      <point x="623" y="714"/>
      <point x="396" y="714" type="curve"/>
      <point x="235" y="659"/>
      <point x="39" y="548"/>
      <point x="39" y="316" type="curve" smooth="yes"/>
      <point x="39" y="128"/>
      <point x="184" y="-17"/>
      <point x="366" y="-17" type="curve"/>
      <point x="568" y="28"/>
      <point x="755" y="161"/>
      <point x="755" y="383" type="curve" smooth="yes"/>
      <point x="755" y="591"/>
    </contour>
  </outline>
</glyph>
<glyph name="P" format="2">
  <advance width="628"/>
  <unicode hex="0050"/>
  <anchor x="326" y="0" name="bottom"/>
  <anchor x="326" y="700" name="top"/>
  <outline>
    <contour>
      <point x="112" y="0" type="line" name="_corner02"/>
      <point x="256" y="0" type="line" name="_corner01"/>
      <point x="256" y="297" type="line"/>
      <point x="331" y="298" type="line"/>
      <point x="374" y="301"/>
      <point x="619" y="328"/>
      <point x="618" y="525" type="curve" smooth="yes"/>
      <point x="617" y="659"/>
      <point x="467" y="704"/>
      <point x="360" y="701" type="curve"/>
      <point x="112" y="700" type="line" name="_corner00"/>
    </contour>
    <contour>
      <point x="256" y="350" type="curve"/>
      <point x="256" y="663" type="line"/>
      <point x="265" y="670"/>
      <point x="293" y="675"/>
      <point x="319" y="675" type="curve" smooth="yes"/>
      <point x="395" y="675"/>
      <point x="454" y="603"/>
      <point x="454" y="494" type="curve" smooth="yes"/>
      <point x="454" y="410"/>
      <point x="410" y="328"/>
      <point x="353" y="328" type="curve" smooth="yes"/>
      <point x="318" y="328"/>
      <point x="289" y="339"/>
    </contour>
  </outline>
</glyph>
<glyph name="Q" format="2">
  <advance width="791"/>
  <unicode hex="0051"/>
  <anchor x="377" y="0" name="bottom"/>
  <anchor x="377" y="700" name="top"/>
  <outline>
    <contour>
      <point x="260" y="-104" type="curve"/>
      <point x="309" y="-83" type="line"/>
      <point x="412" y="-108"/>
      <point x="510" y="-157"/>
      <point x="630" y="-215" type="curve"/>
      <point x="806" y="-65" type="line"/>
      <point x="798" y="-54" type="line"/>
      <point x="711" y="-105" type="line"/>
      <point x="686" y="-122"/>
      <point x="527" y="-5"/>
      <point x="400" y="-5" type="curve"/>
      <point x="397" y="-3" type="line"/>
      <point x="300" y="-60" type="line"/>
      <point x="233" y="-88" type="line"/>
      <point x="236" y="-99"/>
      <point x="249" y="-106"/>
    </contour>
    <component base="O"/>
  </outline>
</glyph>
<glyph name="R" format="2">
  <advance width="699"/>
  <unicode hex="0052"/>
  <anchor x="353" y="0" name="bottom"/>
  <anchor x="326" y="700" name="top"/>
  <outline>
    <contour>
      <point x="112" y="0" type="line" name="_corner01"/>
      <point x="256" y="0" type="line" name="_corner00"/>
      <point x="256" y="311" type="line"/>
      <point x="331" y="312" type="line"/>
      <point x="369" y="315"/>
      <point x="614" y="344"/>
      <point x="613" y="527" type="curve" smooth="yes"/>
      <point x="612" y="661"/>
      <point x="462" y="704"/>
      <point x="360" y="701" type="curve"/>
      <point x="112" y="700" type="line" name="_corner02"/>
    </contour>
    <contour>
      <point x="256" y="350" type="curve"/>
      <point x="256" y="663" type="line"/>
      <point x="267" y="669"/>
      <point x="292" y="674"/>
      <point x="319" y="674" type="curve" smooth="yes"/>
      <point x="392" y="674"/>
      <point x="449" y="604"/>
      <point x="449" y="515" type="curve" smooth="yes"/>
      <point x="449" y="419"/>
      <point x="407" y="343"/>
      <point x="353" y="343" type="curve" smooth="yes"/>
      <point x="315" y="343"/>
      <point x="272" y="347"/>
    </contour>
    <contour>
      <point x="350" y="316" type="line"/>
      <point x="289" y="312" type="line"/>
      <point x="479" y="0" type="line"/>
      <point x="650" y="-1" type="line"/>
      <point x="719" y="47" type="line"/>
      <point x="705" y="62" type="line"/>
      <point x="644" y="25" type="line"/>
      <point x="612" y="25"/>
      <point x="473" y="287"/>
      <point x="465" y="302" type="curve"/>
    </contour>
  </outline>
</glyph>
<glyph name="S" format="2">
  <advance width="582"/>
  <unicode hex="0053"/>
  <anchor x="288" y="0" name="bottom"/>
  <anchor x="288" y="700" name="top"/>
  <outline>
    <contour>
      <point x="50" y="66" type="line"/>
      <point x="92" y="26"/>
      <point x="183" y="-14"/>
      <point x="293" y="-14" type="curve"/>
      <point x="458" y="12"/>
      <point x="558" y="82"/>
      <point x="558" y="199" type="curve" smooth="yes"/>
      <point x="558" y="410"/>
      <point x="196" y="452"/>
      <point x="196" y="599" type="curve" smooth="yes"/>
      <point x="196" y="651"/>
      <point x="241" y="686"/>
      <point x="284" y="686" type="curve" smooth="yes"/>
      <point x="384" y="686"/>
      <point x="460" y="625"/>
      <point x="496" y="502" type="curve"/>
      <point x="524" y="502" type="line"/>
      <point x="523" y="676" type="line"/>
      <point x="479" y="697"/>
      <point x="384" y="716"/>
      <point x="298" y="716" type="curve"/>
      <point x="147" y="690"/>
      <point x="63" y="613"/>
      <point x="63" y="513" type="curve" smooth="yes"/>
      <point x="63" y="332"/>
      <point x="402" y="316"/>
      <point x="402" y="139" type="curve" smooth="yes"/>
      <point x="402" y="68"/>
      <point x="364" y="16"/>
      <point x="303" y="16" type="curve" smooth="yes"/>
      <point x="228" y="16"/>
      <point x="143" y="98"/>
      <point x="79" y="247" type="curve"/>
      <point x="50" y="247" type="line"/>
    </contour>
  </outline>
</glyph>
<glyph name="T" format="2">
  <advance width="690"/>
  <unicode hex="0054"/>
  <anchor x="350" y="0" name="bottom"/>
  <anchor x="350" y="350" name="center"/>
  <anchor x="350" y="700" name="top"/>
  <outline>
    <contour>
      <point x="123" y="700" type="line"/>
      <point x="123" y="677" type="line"/>
      <point x="350" y="680" type="line"/>
      <point x="350" y="700" type="line"/>
    </contour>
    <contour>
      <point x="38" y="704" type="line"/>
      <point x="15" y="495" type="line"/>
      <point x="40" y="495" type="line"/>
      <point x="192" y="699" type="line"/>
      <point x="116" y="700" type="line"/>
    </contour>
    <contour>
      <point x="564" y="700" type="line"/>
      <point x="350" y="700" type="line"/>
      <point x="350" y="680" type="line"/>
      <point x="564" y="677" type="line"/>
    </contour>
    <contour>
      <point x="649" y="704" type="line"/>
      <point x="571" y="700" type="line"/>
      <point x="495" y="699" type="line"/>
      <point x="647" y="495" type="line"/>
      <point x="672" y="495" type="line"/>
    </contour>
    <contour>
      <point x="265" y="700" type="line"/>
      <point x="265" y="0" type="line" name="_corner00"/>
      <point x="423" y="0" type="line" name="_corner01"/>
      <point x="423" y="700" type="line"/>
    </contour>
  </outline>
</glyph>
<glyph name="U" format="2">
  <advance width="719"/>
  <unicode hex="0055"/>
  <anchor x="360" y="0" name="bottom"/>
  <anchor x="499" y="10" name="ogonek"/>
  <anchor x="360" y="700" name="top"/>
  <anchor x="699" y="700" name="topright"/>
  <outline>
    <contour>
      <point x="263" y="700" type="line" name="_corner03"/>
      <point x="97" y="700" type="line" name="_corner00"/>
      <point x="97" y="201" type="line" smooth="yes"/>
      <point x="97" y="69"/>
      <point x="188" y="-18"/>
      <point x="364" y="-18" type="curve"/>
      <point x="519" y="10"/>
      <point x="618" y="47"/>
      <point x="618" y="220" type="curve" smooth="yes"/>
      <point x="619" y="700" type="line" name="_corner01"/>
      <point x="581" y="700" type="line" name="_corner02"/>
      <point x="581" y="208" type="line" smooth="yes"/>
      <point x="581" y="65"/>
      <point x="489" y="22"/>
      <point x="409" y="22" type="curve" smooth="yes"/>
      <point x="319" y="22"/>
      <point x="263" y="73"/>
      <point x="263" y="220" type="curve" smooth="yes"/>
    </contour>
  </outline>
</glyph>
<glyph name="V" format="2">
  <advance width="758"/>
  <unicode hex="0056"/>
  <anchor x="384" y="0" name="bottom"/>
  <anchor x="384" y="700" name="top"/>
  <outline>
    <contour>
      <point x="479" y="0" type="line"/>
      <point x="679" y="700" type="line" name="_corner00"/>
      <point x="641" y="700" type="line" name="_corner01"/>
      <point x="459" y="51" type="line"/>
      <point x="455" y="51" type="line"/>
      <point x="240" y="700" type="line" name="_corner02"/>
      <point x="64" y="700" type="line" name="_corner03"/>
      <point x="299" y="-9" type="line"/>
    </contour>
  </outline>
</glyph>
<glyph name="W" format="2">
  <advance width="1133"/>
  <unicode hex="0057"/>
  <anchor x="579" y="0" name="bottom"/>
  <anchor x="579" y="700" name="top"/>
  <outline>
    <contour>
      <point x="461" y="0" type="line"/>
      <point x="629" y="580" type="line"/>
      <point x="621" y="679" type="line"/>
      <point x="444" y="59" type="line"/>
      <point x="240" y="700" type="line" name="_corner00"/>
      <point x="84" y="700" type="line" name="_corner01"/>
      <point x="310" y="-9" type="line"/>
    </contour>
    <contour>
      <point x="855" y="0" type="line"/>
      <point x="1053" y="700" type="line" name="_corner02"/>
      <point x="1014" y="700" type="line" name="_corner03"/>
      <point x="838" y="66" type="line"/>
      <point x="656" y="700" type="line"/>
      <point x="502" y="700" type="line"/>
      <point x="708" y="-9" type="line"/>
    </contour>
  </outline>
</glyph>
<glyph name="X" format="2">
  <advance width="747"/>
  <unicode hex="0058"/>
  <anchor x="358" y="0" name="bottom"/>
  <anchor x="358" y="700" name="top"/>
  <outline>
    <contour>
      <point x="505" y="0" type="line" name="_corner05"/>
      <point x="682" y="0" type="line" name="_corner04"/>
      <point x="235" y="700" type="line" name="_corner06"/>
      <point x="60" y="700" type="line" name="_corner07"/>
    </contour>
    <contour>
      <point x="406" y="363" type="line"/>
      <point x="624" y="700" type="line" name="_corner02"/>
      <point x="581" y="700" type="line" name="_corner03"/>
      <point x="375" y="376" type="line"/>
    </contour>
    <contour>
      <point x="108" y="0" type="line" name="_corner01"/>
      <point x="348" y="355" type="line"/>
      <point x="310" y="365" type="line"/>
      <point x="64" y="0" type="line" name="_corner00"/>
    </contour>
  </outline>
</glyph>
<glyph name="Y" format="2">
  <advance width="676"/>
  <unicode hex="0059"/>
  <anchor x="340" y="0" name="bottom"/>
  <anchor x="378" y="700" name="top"/>
  <anchor x="10" y="700" name="topleft"/>
  <outline>
    <contour>
      <point x="421" y="286" type="line"/>
      <point x="616" y="700" type="line" name="_corner02"/>
      <point x="586" y="700" type="line" name="_corner03"/>
      <point x="401" y="307" type="line"/>
      <point x="439" y="330" type="line"/>
      <point x="233" y="700" type="line" name="_corner04"/>
      <point x="69" y="700" type="line" name="_corner05"/>
      <point x="293" y="276" type="line"/>
    </contour>
    <contour>
      <point x="291" y="292" type="line"/>
      <point x="291" y="0" type="line" name="_corner00"/>
      <point x="435" y="0" type="line" name="_corner01"/>
      <point x="439" y="330" type="line"/>
    </contour>
  </outline>
</glyph>
<glyph name="Z" format="2">
  <advance width="634"/>
  <unicode hex="005A"/>
  <anchor x="308" y="0" name="bottom"/>
  <anchor x="308" y="350" name="center"/>
  <anchor x="308" y="700" name="top"/>
  <outline>
    <contour>
      <point x="212" y="0" type="line"/>
      <point x="584" y="670" type="line"/>
      <point x="584" y="700" type="line"/>
      <point x="425" y="700" type="line"/>
      <point x="43" y="18" type="line"/>
      <point x="43" y="0" type="line"/>
    </contour>
    <contour>
      <point x="49" y="700" type="line"/>
      <point x="49" y="669" type="line"/>
      <point x="474" y="679" type="line"/>
      <point x="460" y="700" type="line"/>
    </contour>
    <contour>
      <point x="160" y="22" type="line"/>
      <point x="162" y="0" type="line"/>
      <point x="591" y="0" type="line"/>
      <point x="591" y="32" type="line"/>
    </contour>
    <contour>
      <point x="591" y="0" type="line"/>
      <point x="591" y="235" type="line"/>
      <point x="571" y="235" type="line"/>
      <point x="449" y="29" type="line"/>
    </contour>
    <contour>
      <point x="49" y="694" type="line"/>
      <point x="49" y="487" type="line"/>
      <point x="69" y="487" type="line"/>
      <point x="201" y="685" type="line"/>
    </contour>
  </outline>
</glyph>
<glyph name="bracketleft" format="2">
  <advance width="335"/>
  <unicode hex="005B"/>
  <outline>
    <contour>
      <point x="47" y="750" type="line"/>
      <point x="47" y="-250" type="line"/>
      <point x="190" y="-250" type="line"/>
      <point x="276" y="-250" type="line"/>
      <point x="276" y="-232" type="line"/>
      <point x="182" y="-224" type="line"/>
      <point x="182" y="724" type="line"/>
      <point x="285" y="732" type="line"/>
      <point x="285" y="750" type="line"/>
      <point x="189" y="750" type="line"/>
    </contour>
  </outline>
</glyph>
<glyph name="asciicircum" format="2">
  <advance width="600"/>
  <unicode hex="005E"/>
  <outline>
    <contour>
      <point x="67" y="496" type="line"/>
      <point x="130" y="466" type="line"/>
      <point x="288" y="719" type="line"/>
      <point x="445" y="466" type="line"/>
      <point x="508" y="496" type="line"/>
      <point x="328" y="773" type="line"/>
      <point x="247" y="773" type="line"/>
    </contour>
  </outline>
</glyph>
<glyph name="underscore" format="2">
  <advance width="600"/>
  <unicode hex="005F"/>
  <outline>
    <contour>
      <point x="82" y="-11" type="line"/>
      <point x="82" y="-72" type="line"/>
      <point x="504" y="-72" type="line"/>
      <point x="504" y="-12" type="line"/>
    </contour>
  </outline>
</glyph>
<glyph name="a" format="2">
  <advance width="560"/>
  <unicode hex="0061"/>
  <anchor x="280" y="0" name="bottom"/>
  <anchor x="502" y="10" name="ogonek"/>
  <anchor x="280" y="480" name="top"/>
  <outline>
    <contour>
      <point x="33" y="210" type="curve" smooth="yes"/>
      <point x="33" y="89"/>
      <point x="107" y="-14"/>
      <point x="220" y="-14" type="curve"/>
      <point x="250" y="5"/>
      <point x="336" y="78"/>
      <point x="352" y="109" type="curve"/>
      <point x="352" y="0" type="line"/>
      <point x="490" y="0" type="line" name="_corner00"/>
      <point x="485" y="468" type="line"/>
      <point x="415" y="490"/>
      <point x="375" y="494"/>
      <point x="277" y="494" type="curve"/>
      <point x="209" y="473"/>
      <point x="33" y="404"/>
    </contour>
    <contour>
      <point x="173" y="273" type="curve" smooth="yes"/>
      <point x="173" y="410"/>
      <point x="206" y="458"/>
      <point x="264" y="458" type="curve" smooth="yes"/>
      <point x="299" y="458"/>
      <point x="329" y="441"/>
      <point x="348" y="424" type="curve"/>
      <point x="348" y="126" type="line"/>
      <point x="317" y="92"/>
      <point x="286" y="85"/>
      <point x="265" y="85" type="curve" smooth="yes"/>
      <point x="201" y="85"/>
      <point x="173" y="166"/>
    </contour>
  </outline>
</glyph>
<glyph name="b" format="2">
  <advance width="536"/>
  <unicode hex="0062"/>
  <anchor x="239" y="0" name="bottom"/>
  <anchor x="239" y="240" name="center"/>
  <anchor x="239" y="480" name="top"/>
  <outline>
    <contour>
      <point x="33" y="41" type="line"/>
      <point x="73" y="7"/>
      <point x="148" y="-14"/>
      <point x="249" y="-14" type="curve"/>
      <point x="303" y="0"/>
      <point x="501" y="56"/>
      <point x="501" y="278" type="curve" smooth="yes"/>
      <point x="501" y="386"/>
      <point x="456" y="494"/>
      <point x="328" y="494" type="curve"/>
      <point x="288" y="478"/>
      <point x="222" y="432"/>
      <point x="186" y="397" type="curve"/>
      <point x="186" y="749" type="line"/>
      <point x="188" y="750" type="line"/>
      <point x="50" y="750" type="line" name="_corner00"/>
      <point x="50" y="53" type="line"/>
    </contour>
    <contour>
      <point x="355" y="211" type="curve" smooth="yes"/>
      <point x="355" y="100"/>
      <point x="324" y="21"/>
      <point x="272" y="21" type="curve" smooth="yes"/>
      <point x="248" y="21"/>
      <point x="216" y="34"/>
      <point x="185" y="72" type="curve"/>
      <point x="186" y="382" type="line"/>
      <point x="214" y="396"/>
      <point x="238" y="404"/>
      <point x="261" y="404" type="curve" smooth="yes"/>
      <point x="309" y="404"/>
      <point x="355" y="329"/>
    </contour>
  </outline>
</glyph>
<glyph name="c" format="2">
  <advance width="487"/>
  <unicode hex="0063"/>
  <anchor x="237" y="0" name="bottom"/>
  <anchor x="237" y="480" name="top"/>
  <outline>
    <contour>
      <point x="337" y="325" type="curve"/>
      <point x="382" y="317" type="line"/>
      <point x="472" y="360" type="line"/>
      <point x="472" y="445"/>
      <point x="372" y="494"/>
      <point x="275" y="494" type="curve"/>
      <point x="155" y="463"/>
      <point x="33" y="377"/>
      <point x="33" y="218" type="curve" smooth="yes"/>
      <point x="33" y="96"/>
      <point x="104" y="-14"/>
      <point x="278" y="-14" type="curve"/>
      <point x="350" y="29"/>
      <point x="419" y="80"/>
      <point x="472" y="129" type="curve"/>
      <point x="465" y="139" type="line"/>
      <point x="422" y="110"/>
      <point x="380" y="84"/>
      <point x="337" y="59" type="curve"/>
      <point x="229" y="84"/>
      <point x="173" y="164"/>
      <point x="173" y="288" type="curve" smooth="yes"/>
      <point x="173" y="393"/>
      <point x="209" y="460"/>
      <point x="249" y="460" type="curve" smooth="yes"/>
      <point x="286" y="460"/>
      <point x="323" y="416"/>
    </contour>
  </outline>
</glyph>
<glyph name="d" format="2">
  <advance width="575"/>
  <unicode hex="0064"/>
  <anchor x="292" y="0" name="bottom"/>
  <anchor x="292" y="240" name="center"/>
  <anchor x="292" y="750" name="top"/>
  <anchor x="552" y="750" name="topright"/>
  <outline>
    <contour>
      <point x="496" y="0" type="line" name="_corner01"/>
      <point x="493" y="750" type="line"/>
      <point x="352" y="750" type="line" name="_corner00"/>
      <point x="359" y="0" type="line"/>
    </contour>
    <contour>
      <point x="33" y="210" type="curve" smooth="yes"/>
      <point x="33" y="89"/>
      <point x="107" y="-14"/>
      <point x="220" y="-14" type="curve"/>
      <point x="242" y="0"/>
      <point x="310" y="45"/>
      <point x="360" y="109" type="curve"/>
      <point x="365" y="110" type="line"/>
      <point x="485" y="468" type="line"/>
      <point x="415" y="490"/>
      <point x="375" y="494"/>
      <point x="277" y="494" type="curve"/>
      <point x="209" y="473"/>
      <point x="33" y="404"/>
    </contour>
    <contour>
      <point x="173" y="273" type="curve" smooth="yes"/>
      <point x="173" y="410"/>
      <point x="206" y="458"/>
      <point x="264" y="458" type="curve" smooth="yes"/>
      <point x="299" y="458"/>
      <point x="329" y="441"/>
      <point x="348" y="424" type="curve"/>
      <point x="348" y="126" type="line"/>
      <point x="317" y="92"/>
      <point x="287" y="85"/>
      <point x="267" y="85" type="curve" smooth="yes"/>
      <point x="202" y="85"/>
      <point x="173" y="166"/>
    </contour>
  </outline>
</glyph>
<glyph name="e" format="2">
  <advance width="504"/>
  <unicode hex="0065"/>
  <anchor x="254" y="0" name="bottom"/>
  <anchor x="339" y="10" name="ogonek"/>
  <anchor x="254" y="480" name="top"/>
  <outline>
    <contour>
      <point x="145" y="274" type="line"/>
      <point x="145" y="261" type="line"/>
      <point x="417" y="263" type="line"/>
      <point x="417" y="298" type="line"/>
    </contour>
    <contour>
      <point x="454" y="263" type="line"/>
      <point x="482" y="281" type="line"/>
      <point x="481" y="430"/>
      <point x="399" y="494"/>
      <point x="284" y="494" type="curve"/>
      <point x="174" y="467"/>
      <point x="33" y="384"/>
      <point x="33" y="226" type="curve" smooth="yes"/>
      <point x="33" y="93"/>
      <point x="127" y="-14"/>
      <point x="291" y="-14" type="curve"/>
      <point x="356" y="25"/>
      <point x="419" y="74"/>
      <point x="484" y="129" type="curve"/>
      <point x="477" y="139" type="line"/>
      <point x="436" y="113"/>
      <point x="394" y="86"/>
      <point x="350" y="63" type="curve"/>
      <point x="239" y="81"/>
      <point x="174" y="161"/>
      <point x="174" y="267" type="curve" smooth="yes"/>
      <point x="174" y="389"/>
      <point x="208" y="459"/>
      <point x="250" y="459" type="curve" smooth="yes"/>
      <point x="289" y="459"/>
      <point x="338" y="408"/>
      <point x="338" y="295" type="curve" smooth="yes"/>
      <point x="338" y="286"/>
      <point x="338" y="270"/>
      <point x="338" y="263" type="curve"/>
    </contour>
  </outline>
</glyph>
<glyph name="f" format="2">
  <advance width="383"/>
  <unicode hex="0066"/>
  <anchor x="149" y="0" name="bottom"/>
  <anchor x="149" y="750" name="top"/>
  <outline>
    <contour>
      <point x="327" y="633" type="curve"/>
      <point x="375" y="626" type="line"/>
      <point x="453" y="710" type="line"/>
      <point x="400" y="766"/>
      <point x="354" y="771"/>
      <point x="303" y="766" type="curve"/>
      <point x="215" y="733"/>
      <point x="100" y="642"/>
      <point x="80" y="539" type="curve"/>
      <point x="80" y="480" type="line"/>
      <point x="10" y="476" type="line"/>
      <point x="10" y="456" type="line"/>
      <point x="81" y="456" type="line"/>
      <point x="81" y="0" type="line" name="_corner00"/>
      <point x="225" y="0" type="line" name="_corner01"/>
      <point x="225" y="458" type="line"/>
      <point x="292" y="453" type="line"/>
      <point x="346" y="460" type="line"/>
      <point x="346" y="480" type="line"/>
      <point x="224" y="480" type="line"/>
      <point x="224" y="691" type="line"/>
      <point x="235" y="702"/>
      <point x="245" y="708"/>
      <point x="259" y="708" type="curve" smooth="yes"/>
      <point x="279" y="708"/>
      <point x="300" y="696"/>
    </contour>
  </outline>
</glyph>
<glyph name="g" format="2">
  <advance width="546"/>
  <unicode hex="0067"/>
  <anchor x="274" y="-250" name="bottom"/>
  <anchor x="263" y="480" name="top"/>
  <outline>
    <contour>
      <point x="480" y="448" type="line"/>
      <point x="508" y="448" type="line"/>
      <point x="536" y="522" type="line"/>
      <point x="434" y="559" type="line"/>
      <point x="423" y="510"/>
      <point x="401" y="476"/>
      <point x="371" y="476" type="curve" smooth="yes"/>
      <point x="364" y="476"/>
      <point x="350" y="476"/>
      <point x="344" y="477" type="curve"/>
      <point x="394" y="453" type="line"/>
      <point x="409" y="476" type="line"/>
    </contour>
    <contour>
      <point x="138" y="-93" type="curve" smooth="yes"/>
      <point x="138" y="-72"/>
      <point x="145" y="-48"/>
      <point x="153" y="-26" type="curve"/>
      <point x="372" y="-41"/>
      <point x="391" y="-63"/>
      <point x="391" y="-111" type="curve" smooth="yes"/>
      <point x="391" y="-168"/>
      <point x="337" y="-203"/>
      <point x="257" y="-203" type="curve" smooth="yes"/>
      <point x="182" y="-203"/>
      <point x="138" y="-155"/>
    </contour>
    <contour>
      <point x="178" y="161" type="curve"/>
      <point x="156" y="168" type="line"/>
      <point x="111" y="125"/>
      <point x="66" y="84"/>
      <point x="41" y="47" type="curve"/>
      <point x="33" y="13"/>
      <point x="92" y="-22"/>
      <point x="126" y="-22" type="curve" smooth="yes"/>
      <point x="132" y="-22" type="line"/>
      <point x="86" y="-51"/>
      <point x="41" y="-72"/>
      <point x="5" y="-93" type="curve"/>
      <point x="5" y="-230"/>
      <point x="131" y="-241"/>
      <point x="241" y="-241" type="curve"/>
      <point x="302" y="-225"/>
      <point x="508" y="-177"/>
      <point x="508" y="-44" type="curve" smooth="yes"/>
      <point x="508" y="129"/>
      <point x="149" y="40"/>
      <point x="149" y="119" type="curve" smooth="yes"/>
      <point x="149" y="129"/>
      <point x="149" y="133"/>
    </contour>
    <contour>
      <point x="278" y="158" type="curve" smooth="yes"/>
      <point x="227" y="156"/>
      <point x="186" y="234"/>
      <point x="186" y="333" type="curve" smooth="yes"/>
      <point x="186" y="408"/>
      <point x="207" y="463"/>
      <point x="241" y="463" type="curve" smooth="yes"/>
      <point x="288" y="463"/>
      <point x="327" y="385"/>
      <point x="327" y="285" type="curve" smooth="yes"/>
      <point x="327" y="214"/>
      <point x="308" y="160"/>
    </contour>
    <contour>
      <point x="470" y="329" type="curve" smooth="yes"/>
      <point x="470" y="435"/>
      <point x="383" y="493"/>
      <point x="272" y="493" type="curve"/>
      <point x="117" y="451"/>
      <point x="43" y="389"/>
      <point x="43" y="299" type="curve" smooth="yes"/>
      <point x="43" y="195"/>
      <point x="132" y="129"/>
      <point x="241" y="129" type="curve"/>
      <point x="394" y="173"/>
      <point x="470" y="228"/>
    </contour>
  </outline>
</glyph>
<glyph name="h" format="2">
  <advance width="611"/>
  <unicode hex="0068"/>
  <outline>
    <contour>
      <point x="208" y="360" type="line"/>
      <point x="240" y="384"/>
      <point x="269" y="400"/>
      <point x="299" y="400" type="curve" smooth="yes"/>
      <point x="360" y="400"/>
      <point x="390" y="359"/>
      <point x="390" y="259" type="curve" smooth="yes"/>
      <point x="390" y="0" type="line" name="_corner00"/>
      <point x="534" y="0" type="line" name="_corner01"/>
      <point x="534" y="330" type="line" smooth="yes"/>
      <point x="534" y="446"/>
      <point x="484" y="494"/>
      <point x="367" y="494" type="curve"/>
      <point x="313" y="461"/>
      <point x="255" y="417"/>
      <point x="208" y="373" type="curve"/>
    </contour>
    <contour>
      <point x="227" y="384" type="line"/>
      <point x="222" y="384" type="line"/>
      <point x="222" y="750" type="line"/>
      <point x="83" y="750" type="line" name="_corner02"/>
      <point x="83" y="0" type="line" name="_corner03"/>
      <point x="227" y="0" type="line" name="_corner04"/>
    </contour>
  </outline>
</glyph>
<glyph name="k" format="2">
  <advance width="596"/>
  <unicode hex="006B"/>
  <anchor x="307" y="0" name="bottom"/>
  <anchor x="307" y="750" name="top"/>
  <outline>
    <contour>
      <point x="81" y="0" type="line" name="_corner02"/>
      <point x="222" y="0" type="line" name="_corner01"/>
      <point x="222" y="215" type="line"/>
      <point x="244" y="237" type="line"/>
      <point x="405" y="0" type="line" name="_corner03"/>
      <point x="545" y="0" type="line"/>
      <point x="606" y="0" type="line"/>
      <point x="606" y="10" type="line"/>
      <point x="541" y="45" type="line"/>
      <point x="350" y="332" type="line"/>
      <point x="483" y="451" type="line"/>
      <point x="567" y="466" type="line"/>
      <point x="567" y="480" type="line"/>
      <point x="388" y="480" type="line"/>
      <point x="388" y="466" type="line"/>
      <point x="459" y="452" type="line"/>
      <point x="454" y="462" type="line"/>
      <point x="226" y="260" type="line"/>
      <point x="222" y="260" type="line"/>
      <point x="226" y="749" type="line"/>
      <point x="81" y="750" type="line" name="_corner00"/>
    </contour>
  </outline>
</glyph>
<glyph name="l" format="2">
  <advance width="306"/>
  <unicode hex="006C"/>
  <anchor x="153" y="0" name="bottom"/>
  <anchor x="153" y="375" name="center"/>
  <anchor x="153" y="750" name="top"/>
  <anchor x="286" y="750" name="topright"/>
  <outline>
    <contour>
      <point x="227" y="0" type="line" name="_corner02"/>
      <point x="227" y="750" type="line"/>
      <point x="83" y="750" type="line" name="_corner00"/>
      <point x="83" y="0" type="line" name="_corner01"/>
    </contour>
  </outline>
</glyph>
<glyph name="m" format="2">
  <advance width="907"/>
  <unicode hex="006D"/>
  <anchor x="455" y="0" name="bottom"/>
  <anchor x="455" y="480" name="top"/>
  <outline>
    <contour>
      <point x="207" y="365" type="line"/>
      <point x="239" y="389"/>
      <point x="268" y="400"/>
      <point x="298" y="400" type="curve" smooth="yes"/>
      <point x="359" y="400"/>
      <point x="389" y="359"/>
      <point x="389" y="259" type="curve" smooth="yes"/>
      <point x="389" y="0" type="line" name="_corner00"/>
      <point x="533" y="0" type="line" name="_corner01"/>
      <point x="533" y="330" type="line" smooth="yes"/>
      <point x="533" y="446"/>
      <point x="483" y="494"/>
      <point x="366" y="494" type="curve"/>
      <point x="312" y="461"/>
      <point x="254" y="422"/>
      <point x="207" y="378" type="curve"/>
    </contour>
    <contour>
      <point x="236" y="384" type="line"/>
      <point x="231" y="384" type="line"/>
      <point x="231" y="480" type="line"/>
      <point x="92" y="480" type="line" name="_corner02"/>
      <point x="92" y="0" type="line" name="_corner03"/>
      <point x="236" y="0" type="line" name="_corner04"/>
    </contour>
    <contour>
      <point x="504" y="365" type="line"/>
      <point x="536" y="389"/>
      <point x="565" y="400"/>
      <point x="595" y="400" type="curve" smooth="yes"/>
      <point x="656" y="400"/>
      <point x="686" y="359"/>
      <point x="686" y="259" type="curve" smooth="yes"/>
      <point x="686" y="0" type="line" name="_corner05"/>
      <point x="830" y="0" type="line" name="_corner06"/>
      <point x="830" y="330" type="line" smooth="yes"/>
      <point x="830" y="446"/>
      <point x="780" y="494"/>
      <point x="663" y="494" type="curve"/>
      <point x="609" y="461"/>
      <point x="551" y="422"/>
      <point x="504" y="378" type="curve"/>
    </contour>
  </outline>
</glyph>
<glyph name="n" format="2">
  <advance width="620"/>
  <unicode hex="006E"/>
  <anchor x="308" y="0" name="bottom"/>
  <anchor x="297" y="480" name="top"/>
  <outline>
    <contour>
      <point x="399" y="259" type="curve" smooth="yes"/>
      <point x="399" y="0" type="line" name="_corner03"/>
      <point x="543" y="0" type="line" name="_corner04"/>
      <point x="543" y="330" type="line" smooth="yes"/>
      <point x="543" y="446"/>
      <point x="493" y="494"/>
      <point x="376" y="494" type="curve"/>
      <point x="322" y="461"/>
      <point x="264" y="422"/>
      <point x="217" y="378" type="curve"/>
      <point x="217" y="365" type="line"/>
      <point x="249" y="389"/>
      <point x="278" y="400"/>
      <point x="308" y="400" type="curve" smooth="yes"/>
      <point x="369" y="400"/>
      <point x="399" y="359"/>
    </contour>
    <contour>
      <point x="92" y="0" type="line" name="_corner00"/>
      <point x="236" y="0" type="line" name="_corner01"/>
      <point x="236" y="384" type="line"/>
      <point x="231" y="384" type="line"/>
      <point x="231" y="480" type="line"/>
      <point x="92" y="480" type="line" name="_corner02"/>
    </contour>
  </outline>
</glyph>
<glyph name="o" format="2">
  <advance width="561"/>
  <unicode hex="006F"/>
  <anchor x="280" y="0" name="bottom"/>
  <anchor x="407" y="166" name="center"/>
  <anchor x="506" y="10" name="ogonek"/>
  <anchor x="280" y="480" name="top"/>
  <anchor x="543" y="480" name="topright"/>
  <outline>
    <contour>
      <point x="309" y="28" type="curve" smooth="yes"/>
      <point x="241" y="26"/>
      <point x="183" y="135"/>
      <point x="183" y="273" type="curve" smooth="yes"/>
      <point x="183" y="377"/>
      <point x="213" y="454"/>
      <point x="257" y="454" type="curve" smooth="yes"/>
      <point x="322" y="454"/>
      <point x="375" y="344"/>
      <point x="375" y="206" type="curve" smooth="yes"/>
      <point x="375" y="107"/>
      <point x="349" y="31"/>
    </contour>
    <contour>
      <point x="434" y="493"/>
      <point x="298" y="493" type="curve"/>
      <point x="111" y="435"/>
      <point x="33" y="348"/>
      <point x="33" y="223" type="curve" smooth="yes"/>
      <point x="33" y="79"/>
      <point x="128" y="-13"/>
      <point x="260" y="-13" type="curve"/>
      <point x="446" y="48"/>
      <point x="526" y="124"/>
      <point x="526" y="264" type="curve" smooth="yes"/>
      <point x="526" y="412"/>
    </contour>
  </outline>
</glyph>
<glyph name="p" format="2">
  <advance width="570"/>
  <unicode hex="0070"/>
  <anchor x="248" y="0" name="bottom"/>
  <anchor x="248" y="480" name="top"/>
  <outline>
    <contour>
      <point x="77" y="480" type="line" name="_corner00"/>
      <point x="72" y="-270" type="line" name="_corner02"/>
      <point x="213" y="-270" type="line" name="_corner01"/>
      <point x="210" y="34" type="line"/>
      <point x="213" y="70" type="line"/>
      <point x="214" y="480" type="line"/>
    </contour>
    <contour>
      <point x="206" y="364" type="curve"/>
      <point x="209" y="350" type="line"/>
      <point x="239" y="380"/>
      <point x="267" y="394"/>
      <point x="298" y="394" type="curve" smooth="yes"/>
      <point x="345" y="394"/>
      <point x="386" y="340"/>
      <point x="386" y="202" type="curve" smooth="yes"/>
      <point x="386" y="86"/>
      <point x="354" y="21"/>
      <point x="310" y="21" type="curve" smooth="yes"/>
      <point x="276" y="21"/>
      <point x="228" y="53"/>
      <point x="206" y="104" type="curve"/>
      <point x="75" y="38" type="line"/>
      <point x="110" y="16"/>
      <point x="189" y="-14"/>
      <point x="285" y="-14" type="curve"/>
      <point x="353" y="7"/>
      <point x="535" y="76"/>
      <point x="535" y="270" type="curve" smooth="yes"/>
      <point x="535" y="387"/>
      <point x="452" y="494"/>
      <point x="339" y="494" type="curve"/>
      <point x="316" y="475"/>
      <point x="208" y="386"/>
    </contour>
  </outline>
</glyph>
<glyph name="q" format="2">
  <advance width="558"/>
  <unicode hex="0071"/>
  <anchor x="287" y="0" name="bottom"/>
  <anchor x="287" y="480" name="top"/>
  <outline>
    <contour>
      <point x="508" y="432" type="line"/>
      <point x="471" y="470"/>
      <point x="390" y="501"/>
      <point x="297" y="494" type="curve"/>
      <point x="203" y="468"/>
      <point x="33" y="392"/>
      <point x="33" y="198" type="curve" smooth="yes"/>
      <point x="33" y="75"/>
      <point x="107" y="-9"/>
      <point x="227" y="-15" type="curve"/>
      <point x="272" y="15"/>
      <point x="315" y="60"/>
      <point x="360" y="103" type="curve"/>
      <point x="352" y="-250" type="line" name="_corner01"/>
      <point x="493" y="-250" type="line" name="_corner00"/>
      <point x="491" y="420" type="line"/>
      <point x="494" y="421" type="line"/>
    </contour>
    <contour>
      <point x="176" y="278" type="curve" smooth="yes"/>
      <point x="176" y="394"/>
      <point x="217" y="458"/>
      <point x="261" y="458" type="curve" smooth="yes"/>
      <point x="298" y="458"/>
      <point x="333" y="436"/>
      <point x="352" y="413" type="curve"/>
      <point x="352" y="126" type="line"/>
      <point x="325" y="99"/>
      <point x="299" y="85"/>
      <point x="268" y="85" type="curve" smooth="yes"/>
      <point x="217" y="85"/>
      <point x="176" y="151"/>
    </contour>
  </outline>
</glyph>
<glyph name="r" format="2">
  <advance width="463"/>
  <unicode hex="0072"/>
  <anchor x="232" y="0" name="bottom"/>
  <anchor x="232" y="480" name="top"/>
  <outline>
    <contour>
      <point x="234" y="373" type="line"/>
      <point x="233" y="373" type="line"/>
      <point x="232" y="485" type="line"/>
      <point x="90" y="480" type="line" name="_corner00"/>
      <point x="90" y="0" type="line" name="_corner01"/>
      <point x="234" y="0" type="line" name="_corner02"/>
    </contour>
    <contour>
      <point x="275" y="381" type="curve" smooth="yes"/>
      <point x="302" y="381"/>
      <point x="326" y="370"/>
      <point x="337" y="341" type="curve"/>
      <point x="382" y="335" type="line"/>
      <point x="460" y="432" type="line"/>
      <point x="435" y="466"/>
      <point x="392" y="496"/>
      <point x="325" y="496" type="curve"/>
      <point x="266" y="453"/>
      <point x="235" y="388"/>
      <point x="224" y="367" type="curve"/>
      <point x="229" y="364" type="line"/>
      <point x="244" y="378"/>
      <point x="262" y="381"/>
    </contour>
  </outline>
</glyph>
<glyph name="s" format="2">
  <advance width="450"/>
  <unicode hex="0073"/>
  <anchor x="206" y="0" name="bottom"/>
  <anchor x="244" y="480" name="top"/>
  <outline>
    <contour>
      <point x="42" y="43" type="line"/>
      <point x="65" y="13"/>
      <point x="132" y="-16"/>
      <point x="222" y="-19" type="curve"/>
      <point x="329" y="18"/>
      <point x="414" y="58"/>
      <point x="414" y="147" type="curve" smooth="yes"/>
      <point x="414" y="296"/>
      <point x="154" y="321"/>
      <point x="154" y="420" type="curve" smooth="yes"/>
      <point x="154" y="452"/>
      <point x="181" y="469"/>
      <point x="214" y="469" type="curve" smooth="yes"/>
      <point x="281" y="469"/>
      <point x="340" y="386"/>
      <point x="372" y="322" type="curve"/>
      <point x="384" y="322" type="line"/>
      <point x="389" y="451" type="line"/>
      <point x="330" y="484"/>
      <point x="288" y="491"/>
      <point x="222" y="494" type="curve"/>
      <point x="111" y="462"/>
      <point x="44" y="418"/>
      <point x="44" y="342" type="curve" smooth="yes"/>
      <point x="44" y="201"/>
      <point x="297" y="184"/>
      <point x="297" y="74" type="curve" smooth="yes"/>
      <point x="297" y="40"/>
      <point x="272" y="8"/>
      <point x="233" y="8" type="curve" smooth="yes"/>
      <point x="165" y="8"/>
      <point x="104" y="96"/>
      <point x="57" y="186" type="curve"/>
      <point x="44" y="188" type="line"/>
    </contour>
  </outline>
</glyph>
<glyph name="t" format="2">
  <advance width="367"/>
  <unicode hex="0074"/>
  <anchor x="169" y="0" name="bottom"/>
  <anchor x="169" y="240" name="center"/>
  <anchor x="169" y="480" name="top"/>
  <anchor x="263" y="750" name="topright"/>
  <outline>
    <contour>
      <point x="-5" y="452" type="line"/>
      <point x="65" y="450" type="line"/>
      <point x="65" y="85" type="line"/>
      <point x="65" y="2"/>
      <point x="166" y="-14"/>
      <point x="239" y="-14" type="curve"/>
      <point x="289" y="17"/>
      <point x="315" y="37"/>
      <point x="367" y="79" type="curve"/>
      <point x="353" y="96" type="line"/>
      <point x="305" y="63"/>
      <point x="293" y="55"/>
      <point x="261" y="55" type="curve" smooth="yes"/>
      <point x="232" y="56"/>
      <point x="204" y="84"/>
      <point x="205" y="128" type="curve"/>
      <point x="205" y="457" type="line"/>
      <point x="323" y="454" type="line"/>
      <point x="361" y="459" type="line"/>
      <point x="361" y="480" type="line"/>
      <point x="205" y="480" type="line"/>
      <point x="209" y="631" type="line"/>
      <point x="197" y="632" type="line"/>
      <point x="86" y="494" type="line"/>
      <point x="-5" y="462" type="line"/>
    </contour>
  </outline>
</glyph>
<glyph name="u" format="2">
  <advance width="566"/>
  <unicode hex="0075"/>
  <anchor x="270" y="0" name="bottom"/>
  <anchor x="508" y="11" name="ogonek"/>
  <anchor x="281" y="480" name="top"/>
  <anchor x="569" y="480" name="topright"/>
  <outline>
    <contour>
      <point x="362" y="-1" type="line"/>
      <point x="496" y="1" type="line" name="_corner01"/>
      <point x="496" y="480" type="line"/>
      <point x="352" y="480" type="line" name="_corner02"/>
      <point x="352" y="88" type="line"/>
      <point x="338" y="76"/>
      <point x="311" y="67"/>
      <point x="284" y="67" type="curve" smooth="yes"/>
      <point x="231" y="67"/>
      <point x="199" y="102"/>
      <point x="199" y="206" type="curve" smooth="yes"/>
      <point x="199" y="480" type="line"/>
      <point x="55" y="480" type="line" name="_corner00"/>
      <point x="55" y="170" type="line" smooth="yes"/>
      <point x="55" y="56"/>
      <point x="97" y="-14"/>
      <point x="236" y="-14" type="curve"/>
      <point x="274" y="6"/>
      <point x="323" y="40"/>
      <point x="358" y="73" type="curve"/>
      <point x="360" y="73" type="line"/>
    </contour>
  </outline>
</glyph>
<glyph name="v" format="2">
  <advance width="561"/>
  <unicode hex="0076"/>
  <anchor x="300" y="0" name="bottom"/>
  <anchor x="300" y="480" name="top"/>
  <outline>
    <contour>
      <point x="362" y="-2" type="line"/>
      <point x="502" y="480" type="line" name="_corner00"/>
      <point x="470" y="480" type="line" name="_corner01"/>
      <point x="352" y="53" type="line"/>
      <point x="200" y="480" type="line" name="_corner02"/>
      <point x="52" y="480" type="line" name="_corner03"/>
      <point x="220" y="-20" type="line"/>
    </contour>
  </outline>
</glyph>
<glyph name="w" format="2">
  <advance width="796"/>
  <unicode hex="0077"/>
  <anchor x="433" y="0" name="bottom"/>
  <anchor x="433" y="480" name="top"/>
  <outline>
    <contour>
      <point x="335" y="-2" type="line"/>
      <point x="467" y="480" type="line"/>
      <point x="436" y="480" type="line"/>
      <point x="324" y="49" type="line"/>
      <point x="182" y="480" type="line" name="_corner02"/>
      <point x="39" y="480" type="line" name="_corner03"/>
      <point x="195" y="-20" type="line"/>
    </contour>
    <contour>
      <point x="631" y="-2" type="line"/>
      <point x="763" y="480" type="line" name="_corner00"/>
      <point x="731" y="480" type="line" name="_corner01"/>
      <point x="623" y="52" type="line"/>
      <point x="491" y="480" type="line"/>
      <point x="358" y="480" type="line"/>
      <point x="494" y="-20" type="line"/>
    </contour>
  </outline>
</glyph>
<glyph name="x" format="2">
  <advance width="508"/>
  <unicode hex="0078"/>
  <anchor x="264" y="0" name="bottom"/>
  <anchor x="264" y="480" name="top"/>
  <outline>
    <contour>
      <point x="39" y="0" type="line" name="_corner03"/>
      <point x="75" y="0" type="line" name="_corner00"/>
      <point x="214" y="193" type="line"/>
      <point x="342" y="0" type="line" name="_corner01"/>
      <point x="487" y="0" type="line" name="_corner02"/>
      <point x="304" y="277" type="line"/>
      <point x="446" y="480" type="line" name="_corner04"/>
      <point x="411" y="480" type="line" name="_corner05"/>
      <point x="289" y="291" type="line"/>
      <point x="169" y="480" type="line" name="_corner06"/>
      <point x="24" y="480" type="line" name="_corner07"/>
      <point x="200" y="212" type="line"/>
    </contour>
  </outline>
</glyph>
<glyph name="y" format="2">
  <advance width="512"/>
  <unicode hex="0079"/>
  <anchor x="217" y="0" name="bottom"/>
  <anchor x="265" y="480" name="top"/>
  <outline>
    <contour>
      <point x="190" y="-7" type="line"/>
      <point x="313" y="31" type="line"/>
      <point x="323" y="33" type="line"/>
      <point x="170" y="480" type="line" name="_corner01"/>
      <point x="17" y="480" type="line" name="_corner00"/>
    </contour>
    <contour>
      <point x="123" y="-107" type="curve"/>
      <point x="80" y="-95" type="line"/>
      <point x="-7" y="-164" type="line"/>
      <point x="19" y="-211"/>
      <point x="59" y="-236"/>
      <point x="125" y="-249" type="curve"/>
      <point x="187" y="-234"/>
      <point x="261" y="-169"/>
      <point x="291" y="-79" type="curve" smooth="yes"/>
      <point x="474" y="480" type="line" name="_corner02"/>
      <point x="442" y="480" type="line" name="_corner03"/>
      <point x="240" y="-136" type="line"/>
      <point x="214" y="-167"/>
      <point x="164" y="-177"/>
    </contour>
  </outline>
</glyph>
<glyph name="z" format="2">
  <advance width="466"/>
  <unicode hex="007A"/>
  <anchor x="233" y="0" name="bottom"/>
  <anchor x="233" y="240" name="center"/>
  <anchor x="243" y="480" name="top"/>
  <outline>
    <contour>
      <point x="20" y="14" type="line"/>
      <point x="32" y="0" type="line"/>
      <point x="445" y="0" type="line"/>
      <point x="445" y="153" type="line"/>
      <point x="425" y="153" type="line"/>
      <point x="335" y="24" type="line"/>
      <point x="190" y="20" type="line"/>
      <point x="449" y="468" type="line"/>
      <point x="441" y="480" type="line"/>
      <point x="43" y="480" type="line"/>
      <point x="43" y="474" type="line"/>
      <point x="43" y="334" type="line"/>
      <point x="63" y="334" type="line"/>
      <point x="155" y="456" type="line"/>
      <point x="289" y="460" type="line"/>
    </contour>
  </outline>
</glyph>
<glyph name="braceleft" format="2">
  <advance width="249"/>
  <unicode hex="007B"/>
  <outline>
    <contour>
      <point x="-5" y="293" type="curve"/>
      <point x="-5" y="282" type="line"/>
      <point x="26" y="278"/>
      <point x="43" y="255"/>
      <point x="43" y="226" type="curve" smooth="yes"/>
      <point x="43" y="-59" type="line" smooth="yes"/>
      <point x="43" y="-171"/>
      <point x="114" y="-246"/>
      <point x="204" y="-250" type="curve"/>
      <point x="207" y="-237" type="line"/>
      <point x="174" y="-229"/>
      <point x="166" y="-185"/>
      <point x="166" y="-92" type="curve" smooth="yes"/>
      <point x="166" y="-40"/>
      <point x="166" y="23"/>
      <point x="166" y="145" type="curve" smooth="yes"/>
      <point x="166" y="222"/>
      <point x="106" y="266"/>
      <point x="69" y="277" type="curve"/>
      <point x="104" y="293"/>
      <point x="166" y="333"/>
      <point x="166" y="450" type="curve" smooth="yes"/>
      <point x="166" y="564" type="line" smooth="yes"/>
      <point x="166" y="689"/>
      <point x="188" y="731"/>
      <point x="220" y="748" type="curve"/>
      <point x="215" y="760" type="line"/>
      <point x="139" y="743"/>
      <point x="43" y="691"/>
      <point x="43" y="509" type="curve" smooth="yes"/>
      <point x="43" y="352" type="line" smooth="yes"/>
      <point x="43" y="313"/>
      <point x="25" y="299"/>
    </contour>
  </outline>
</glyph>
<glyph name="bar" format="2">
  <advance width="302"/>
  <unicode hex="007C"/>
  <outline>
    <contour>
      <point x="181" y="750" type="line"/>
      <point x="121" y="750" type="line"/>
      <point x="121" y="-251" type="line"/>
      <point x="181" y="-250" type="line"/>
    </contour>
  </outline>
</glyph>
<glyph name="asciitilde" format="2">
  <advance width="516"/>
  <unicode hex="007E"/>
  <outline>
    <contour>
      <point x="50" y="166" type="curve"/>
      <point x="108" y="166" type="line"/>
      <point x="110" y="215"/>
      <point x="134" y="246"/>
      <point x="160" y="246" type="curve" smooth="yes"/>
      <point x="218" y="246"/>
      <point x="284" y="166"/>
      <point x="356" y="166" type="curve" smooth="yes"/>
      <point x="427" y="166"/>
      <point x="466" y="233"/>
      <point x="466" y="306" type="curve"/>
      <point x="408" y="306" type="line"/>
      <point x="407" y="257"/>
      <point x="383" y="226"/>
      <point x="356" y="226" type="curve" smooth="yes"/>
      <point x="298" y="226"/>
      <point x="232" y="306"/>
      <point x="160" y="306" type="curve" smooth="yes"/>
      <point x="89" y="306"/>
      <point x="50" y="239"/>
    </contour>
  </outline>
</glyph>
<glyph name="cent" format="2">
  <advance width="487"/>
  <unicode hex="00A2"/>
  <outline>
    <contour>
      <point x="281" y="788" type="line"/>
      <point x="246" y="788" type="line"/>
      <point x="246" y="-106" type="line"/>
      <point x="281" y="-106" type="line"/>
    </contour>
    <component base="c" yOffset="83" identifier="8F44DB48"/>
  </outline>
</glyph>
<glyph name="sterling" format="2">
  <advance width="600"/>
  <unicode hex="00A3"/>
  <outline>
    <contour>
      <point x="77" y="505" type="curve"/>
      <point x="77" y="388"/>
      <point x="174" y="326"/>
      <point x="171" y="224" type="curve" smooth="yes"/>
      <point x="168" y="151"/>
      <point x="114" y="72"/>
      <point x="40" y="-25" type="curve"/>
      <point x="60" y="-39" type="line"/>
      <point x="89" y="3" type="line"/>
      <point x="211" y="65"/>
      <point x="355" y="5"/>
      <point x="433" y="-29" type="curve"/>
      <point x="569" y="141" type="line"/>
      <point x="559" y="151" type="line"/>
      <point x="486" y="103" type="line"/>
      <point x="382" y="116"/>
      <point x="281" y="139"/>
      <point x="159" y="77" type="curve"/>
      <point x="156" y="80" type="line"/>
      <point x="244" y="138"/>
      <point x="302" y="208"/>
      <point x="302" y="289" type="curve" smooth="yes"/>
      <point x="302" y="397"/>
      <point x="186" y="471"/>
      <point x="186" y="557" type="curve" smooth="yes"/>
      <point x="186" y="606"/>
      <point x="226" y="633"/>
      <point x="275" y="633" type="curve" smooth="yes"/>
      <point x="340" y="633"/>
      <point x="372" y="584"/>
      <point x="386" y="555" type="curve"/>
      <point x="405" y="551" type="line"/>
      <point x="508" y="651" type="line"/>
      <point x="465" y="700"/>
      <point x="410" y="714"/>
      <point x="370" y="714" type="curve"/>
      <point x="252" y="691"/>
      <point x="107" y="562"/>
    </contour>
    <contour>
      <point x="45" y="359" type="line"/>
      <point x="45" y="329" type="line"/>
      <point x="469" y="329" type="line"/>
      <point x="469" y="359" type="line"/>
    </contour>
  </outline>
</glyph>
<glyph name="currency" format="2">
  <advance width="446"/>
  <unicode hex="00A4"/>
  <outline>
    <contour>
      <point x="250" y="375" type="line"/>
      <point x="292" y="333" type="line"/>
      <point x="405" y="448" type="line"/>
      <point x="363" y="490" type="line"/>
    </contour>
    <contour>
      <point x="154" y="336" type="line"/>
      <point x="196" y="377" type="line"/>
      <point x="83" y="490" type="line"/>
      <point x="41" y="448" type="line"/>
    </contour>
    <contour>
      <point x="295" y="272" type="line"/>
      <point x="252" y="232" type="line"/>
      <point x="363" y="119" type="line"/>
      <point x="406" y="162" type="line"/>
    </contour>
    <contour>
      <point x="198" y="230" type="line"/>
      <point x="157" y="272" type="line"/>
      <point x="40" y="162" type="line"/>
      <point x="83" y="119" type="line"/>
    </contour>
    <contour>
      <point x="223" y="177" type="curve" smooth="yes"/>
      <point x="295" y="177"/>
      <point x="350" y="232"/>
      <point x="350" y="302" type="curve" smooth="yes"/>
      <point x="350" y="372"/>
      <point x="295" y="427"/>
      <point x="223" y="427" type="curve" smooth="yes"/>
      <point x="151" y="427"/>
      <point x="96" y="372"/>
      <point x="96" y="302" type="curve" smooth="yes"/>
      <point x="96" y="232"/>
      <point x="151" y="177"/>
    </contour>
    <contour>
      <point x="223" y="236" type="curve" smooth="yes"/>
      <point x="187" y="236"/>
      <point x="159" y="263"/>
      <point x="159" y="302" type="curve" smooth="yes"/>
      <point x="159" y="340"/>
      <point x="187" y="368"/>
      <point x="223" y="368" type="curve" smooth="yes"/>
      <point x="259" y="368"/>
      <point x="287" y="340"/>
      <point x="287" y="302" type="curve" smooth="yes"/>
      <point x="287" y="263"/>
      <point x="259" y="236"/>
    </contour>
  </outline>
</glyph>
<glyph name="yen" format="2">
  <advance width="676"/>
  <unicode hex="00A5"/>
  <outline>
    <contour>
      <point x="152" y="290" type="line"/>
      <point x="152" y="260" type="line"/>
      <point x="576" y="260" type="line"/>
      <point x="576" y="290" type="line"/>
    </contour>
    <contour>
      <point x="152" y="220" type="line"/>
      <point x="152" y="190" type="line"/>
      <point x="576" y="190" type="line"/>
      <point x="576" y="220" type="line"/>
    </contour>
    <component base="Y"/>
  </outline>
</glyph>
<glyph name="section" format="2">
  <advance width="480"/>
  <unicode hex="00A7"/>
  <outline>
    <contour>
      <point x="66" y="4" type="line"/>
      <point x="97" y="-24"/>
      <point x="193" y="-63"/>
      <point x="249" y="-63" type="curve"/>
      <point x="365" y="-43"/>
      <point x="450" y="8"/>
      <point x="450" y="93" type="curve" smooth="yes"/>
      <point x="450" y="169"/>
      <point x="368" y="208"/>
      <point x="294" y="250" type="curve"/>
      <point x="383" y="275"/>
      <point x="444" y="325"/>
      <point x="444" y="401" type="curve" smooth="yes"/>
      <point x="444" y="524"/>
      <point x="179" y="565"/>
      <point x="179" y="686" type="curve" smooth="yes"/>
      <point x="179" y="730"/>
      <point x="226" y="751"/>
      <point x="235" y="751" type="curve" smooth="yes"/>
      <point x="323" y="751"/>
      <point x="370" y="693"/>
      <point x="407" y="613" type="curve"/>
      <point x="422" y="613" type="line"/>
      <point x="422" y="742" type="line"/>
      <point x="391" y="758"/>
      <point x="288" y="778"/>
      <point x="265" y="778" type="curve"/>
      <point x="159" y="759"/>
      <point x="79" y="708"/>
      <point x="79" y="633" type="curve" smooth="yes"/>
      <point x="79" y="563"/>
      <point x="150" y="516"/>
      <point x="222" y="470" type="curve"/>
      <point x="130" y="448"/>
      <point x="64" y="400"/>
      <point x="64" y="331" type="curve" smooth="yes"/>
      <point x="64" y="209"/>
      <point x="328" y="157"/>
      <point x="328" y="45" type="curve" smooth="yes"/>
      <point x="328" y="-6"/>
      <point x="294" y="-37"/>
      <point x="260" y="-37" type="curve" smooth="yes"/>
      <point x="223" y="-37"/>
      <point x="177" y="-12"/>
      <point x="80" y="137" type="curve"/>
      <point x="65" y="137" type="line"/>
    </contour>
    <contour>
      <point x="165" y="385" type="curve" smooth="yes"/>
      <point x="165" y="429"/>
      <point x="212" y="449"/>
      <point x="220" y="449" type="curve" smooth="yes"/>
      <point x="274" y="449"/>
      <point x="322" y="408"/>
      <point x="322" y="348" type="curve" smooth="yes"/>
      <point x="322" y="299"/>
      <point x="292" y="268"/>
      <point x="268" y="265" type="curve"/>
      <point x="213" y="299"/>
      <point x="165" y="335"/>
    </contour>
  </outline>
</glyph>
<glyph name="copyright" format="2">
  <advance width="844"/>
  <unicode hex="00A9"/>
  <outline>
    <contour>
      <point x="421" y="-37" type="curve" smooth="yes"/>
      <point x="634" y="-37"/>
      <point x="809" y="136"/>
      <point x="809" y="349" type="curve" smooth="yes"/>
      <point x="809" y="563"/>
      <point x="634" y="738"/>
      <point x="421" y="738" type="curve" smooth="yes"/>
      <point x="208" y="738"/>
      <point x="33" y="563"/>
      <point x="33" y="349" type="curve" smooth="yes"/>
      <point x="33" y="136"/>
      <point x="208" y="-37"/>
    </contour>
    <contour>
      <point x="421" y="29" type="curve" smooth="yes"/>
      <point x="240" y="29"/>
      <point x="103" y="169"/>
      <point x="103" y="349" type="curve" smooth="yes"/>
      <point x="103" y="531"/>
      <point x="240" y="672"/>
      <point x="421" y="672" type="curve" smooth="yes"/>
      <point x="602" y="672"/>
      <point x="739" y="531"/>
      <point x="739" y="349" type="curve" smooth="yes"/>
      <point x="739" y="169"/>
      <point x="602" y="29"/>
    </contour>
    <contour>
      <point x="204" y="332" type="curve" smooth="yes"/>
      <point x="204" y="203"/>
      <point x="295" y="130"/>
      <point x="429" y="126" type="curve"/>
      <point x="494" y="159"/>
      <point x="551" y="200"/>
      <point x="585" y="229" type="curve"/>
      <point x="580" y="238" type="line"/>
      <point x="537" y="214"/>
      <point x="515" y="203"/>
      <point x="474" y="185" type="curve"/>
      <point x="365" y="185"/>
      <point x="307" y="283"/>
      <point x="307" y="397" type="curve" smooth="yes"/>
      <point x="307" y="475"/>
      <point x="336" y="526"/>
      <point x="411" y="526" type="curve" smooth="yes"/>
      <point x="481" y="526"/>
      <point x="536" y="485"/>
      <point x="558" y="428" type="curve"/>
      <point x="567" y="428" type="line"/>
      <point x="565" y="557" type="line"/>
      <point x="524" y="568"/>
      <point x="493" y="574"/>
      <point x="428" y="574" type="curve"/>
      <point x="337" y="546"/>
      <point x="204" y="470"/>
    </contour>
  </outline>
</glyph>
<glyph name="logicalnot" format="2">
  <advance width="500"/>
  <unicode hex="00AC"/>
  <outline>
    <contour>
      <point x="50" y="207" type="line"/>
      <point x="450" y="207" type="line"/>
      <point x="450" y="265" type="line"/>
      <point x="50" y="265" type="line"/>
    </contour>
    <contour>
      <point x="386" y="60" type="line"/>
      <point x="449" y="60" type="line"/>
      <point x="450" y="238" type="line"/>
      <point x="386" y="238" type="line"/>
    </contour>
  </outline>
</glyph>
<glyph name="registered" format="2">
  <advance width="844"/>
  <unicode hex="00AE"/>
  <outline>
    <contour>
      <point x="421" y="-37" type="curve" smooth="yes"/>
      <point x="634" y="-37"/>
      <point x="809" y="136"/>
      <point x="809" y="349" type="curve" smooth="yes"/>
      <point x="809" y="563"/>
      <point x="634" y="738"/>
      <point x="421" y="738" type="curve" smooth="yes"/>
      <point x="208" y="738"/>
      <point x="33" y="563"/>
      <point x="33" y="349" type="curve" smooth="yes"/>
      <point x="33" y="136"/>
      <point x="208" y="-37"/>
    </contour>
    <contour>
      <point x="421" y="29" type="curve" smooth="yes"/>
      <point x="240" y="29"/>
      <point x="103" y="169"/>
      <point x="103" y="349" type="curve" smooth="yes"/>
      <point x="103" y="531"/>
      <point x="240" y="672"/>
      <point x="421" y="672" type="curve" smooth="yes"/>
      <point x="602" y="672"/>
      <point x="739" y="531"/>
      <point x="739" y="349" type="curve" smooth="yes"/>
      <point x="739" y="169"/>
      <point x="602" y="29"/>
    </contour>
    <contour>
      <point x="290" y="149" type="line" name="_corner02"/>
      <point x="373" y="149" type="line" name="_corner00"/>
      <point x="373" y="329" type="line"/>
      <point x="417" y="329" type="line"/>
      <point x="438" y="331"/>
      <point x="580" y="348"/>
      <point x="579" y="454" type="curve" smooth="yes"/>
      <point x="579" y="531"/>
      <point x="493" y="556"/>
      <point x="433" y="555" type="curve"/>
      <point x="290" y="554" type="line" name="_corner01"/>
    </contour>
    <contour>
      <point x="373" y="362" type="curve"/>
      <point x="373" y="522" type="line"/>
      <point x="379" y="526"/>
      <point x="394" y="529"/>
      <point x="409" y="529" type="curve" smooth="yes"/>
      <point x="452" y="529"/>
      <point x="485" y="492"/>
      <point x="485" y="447" type="curve" smooth="yes"/>
      <point x="485" y="397"/>
      <point x="461" y="358"/>
      <point x="429" y="358" type="curve" smooth="yes"/>
      <point x="407" y="358"/>
      <point x="383" y="360"/>
    </contour>
    <contour>
      <point x="428" y="332" type="line"/>
      <point x="392" y="329" type="line"/>
      <point x="502" y="149" type="line"/>
      <point x="601" y="149" type="line"/>
      <point x="641" y="176" type="line"/>
      <point x="629" y="192" type="line"/>
      <point x="594" y="171" type="line"/>
      <point x="575" y="171"/>
      <point x="499" y="315"/>
      <point x="494" y="324" type="curve"/>
    </contour>
  </outline>
</glyph>
<glyph name="plusminus" format="2">
  <advance width="526"/>
  <unicode hex="00B1"/>
  <outline>
    <contour>
      <point x="100" y="266" type="line"/>
      <point x="254" y="266" type="line"/>
      <point x="254" y="133" type="line"/>
      <point x="322" y="133" type="line"/>
      <point x="322" y="266" type="line"/>
      <point x="476" y="266" type="line"/>
      <point x="476" y="324" type="line"/>
      <point x="322" y="324" type="line"/>
      <point x="322" y="455" type="line"/>
      <point x="254" y="455" type="line"/>
      <point x="254" y="324" type="line"/>
      <point x="100" y="324" type="line"/>
    </contour>
    <component base="minus" xScale="-0.9516" yScale="0.9" xOffset="515" yOffset="-165"/>
  </outline>
</glyph>
<glyph name="threesuperior" format="2">
  <advance width="403"/>
  <unicode hex="00B3"/>
  <outline>
    <contour>
      <point x="45" y="578" type="line"/>
      <point x="56" y="571" type="line"/>
      <point x="85" y="607" type="line"/>
      <point x="252" y="607" type="line"/>
      <point x="138" y="473" type="line"/>
      <point x="148" y="465" type="line"/>
      <point x="348" y="687" type="line"/>
      <point x="131" y="687" type="line"/>
    </contour>
    <contour>
      <point x="222" y="559" type="curve"/>
      <point x="159" y="490" type="line"/>
      <point x="218" y="481"/>
      <point x="264" y="441"/>
      <point x="261" y="370" type="curve" smooth="yes"/>
      <point x="259" y="317"/>
      <point x="236" y="286"/>
      <point x="199" y="286" type="curve" smooth="yes"/>
      <point x="156" y="286"/>
      <point x="118" y="329"/>
      <point x="118" y="393" type="curve"/>
      <point x="104" y="396" type="line"/>
      <point x="35" y="348" type="line"/>
      <point x="42" y="297"/>
      <point x="82" y="245"/>
      <point x="155" y="245" type="curve"/>
      <point x="222" y="265"/>
      <point x="353" y="320"/>
      <point x="353" y="432" type="curve" smooth="yes"/>
      <point x="353" y="500"/>
      <point x="307" y="548"/>
    </contour>
  </outline>
</glyph>
<glyph name="micro" format="2">
  <advance width="566"/>
  <unicode hex="00B5"/>
  <outline>
    <contour>
      <point x="136" y="19" type="curve"/>
      <point x="56" y="164" type="line"/>
      <point x="57" y="-238" type="line"/>
      <point x="178" y="-149" type="line"/>
      <point x="164" y="-130"/>
      <point x="141" y="-37"/>
    </contour>
    <component base="u"/>
  </outline>
</glyph>
<glyph name="paragraph" format="2">
  <advance width="600"/>
  <unicode hex="00B6"/>
  <outline>
    <contour>
      <point x="459" y="-40" type="line" name="_corner01"/>
      <point x="459" y="750" type="line" name="_corner02"/>
      <point x="215" y="750" type="line" smooth="yes"/>
      <point x="106" y="750"/>
      <point x="6" y="682"/>
      <point x="6" y="568" type="curve" smooth="yes"/>
      <point x="6" y="402"/>
      <point x="118" y="364"/>
      <point x="244" y="364" type="curve"/>
      <point x="302" y="363" type="line"/>
      <point x="301" y="-40" type="line" name="_corner00"/>
    </contour>
    <contour>
      <point x="361" y="723" type="line"/>
      <point x="383" y="723" type="line"/>
      <point x="407" y="-10" type="line"/>
      <point x="351" y="-10" type="line"/>
    </contour>
  </outline>
</glyph>
<glyph name="AE" format="2">
  <advance width="998"/>
  <unicode hex="00C6"/>
  <anchor x="499" y="0" name="bottom"/>
  <anchor x="499" y="700" name="top"/>
  <outline>
    <contour>
      <point x="456" y="679" type="line"/>
      <point x="464" y="679" type="line"/>
      <point x="514" y="700" type="line"/>
      <point x="432" y="700" type="line"/>
      <point x="45" y="0" type="line" name="_corner00"/>
      <point x="80" y="0" type="line" name="_corner01"/>
    </contour>
    <contour>
      <point x="203" y="258" type="line"/>
      <point x="465" y="258" type="line"/>
      <point x="465" y="284" type="line"/>
      <point x="211" y="284" type="line"/>
    </contour>
    <contour>
      <point x="427" y="656" type="line"/>
      <point x="436" y="700" type="line"/>
      <point x="326" y="700" type="line"/>
      <point x="326" y="684" type="line"/>
    </contour>
    <contour>
      <point x="454" y="700" type="line"/>
      <point x="454" y="0" type="line" name="_corner02"/>
      <point x="610" y="0" type="line"/>
      <point x="610" y="700" type="line"/>
    </contour>
    <contour>
      <point x="565" y="25" type="line"/>
      <point x="557" y="0" type="line"/>
      <point x="934" y="0" type="line"/>
      <point x="919" y="25" type="line"/>
    </contour>
    <contour>
      <point x="936" y="0" type="line"/>
      <point x="958" y="185" type="line"/>
      <point x="943" y="188" type="line"/>
      <point x="921" y="151"/>
      <point x="812" y="14"/>
      <point x="782" y="15" type="curve"/>
    </contour>
    <contour>
      <point x="565" y="375" type="line"/>
      <point x="557" y="350" type="line"/>
      <point x="755" y="350" type="line"/>
      <point x="809" y="235" type="line"/>
      <point x="828" y="235" type="line"/>
      <point x="828" y="493" type="line"/>
      <point x="809" y="493" type="line"/>
      <point x="755" y="375" type="line"/>
    </contour>
    <contour>
      <point x="565" y="675" type="line"/>
      <point x="912" y="675" type="line"/>
      <point x="914" y="700" type="line"/>
      <point x="557" y="700" type="line"/>
    </contour>
    <contour>
      <point x="938" y="703" type="line"/>
      <point x="769" y="689" type="line"/>
      <point x="799" y="690"/>
      <point x="917" y="553"/>
      <point x="938" y="516" type="curve"/>
      <point x="954" y="516" type="line"/>
    </contour>
  </outline>
</glyph>
<glyph name="Eth" format="2">
  <advance width="781"/>
  <unicode hex="00D0"/>
  <outline>
    <contour>
      <point x="20" y="395" type="line"/>
      <point x="20" y="334" type="line"/>
      <point x="389" y="334" type="line"/>
      <point x="389" y="395" type="line"/>
    </contour>
    <component base="D" identifier="A53F4D31"/>
  </outline>
</glyph>
<glyph name="multiply" format="2">
  <advance width="434"/>
  <unicode hex="00D7"/>
  <outline>
    <contour>
      <point x="90" y="67" type="line"/>
      <point x="215" y="197" type="line"/>
      <point x="342" y="64" type="line"/>
      <point x="382" y="105" type="line"/>
      <point x="255" y="235" type="line"/>
      <point x="382" y="364" type="line"/>
      <point x="344" y="402" type="line"/>
      <point x="219" y="275" type="line"/>
      <point x="92" y="405" type="line"/>
      <point x="52" y="365" type="line"/>
      <point x="179" y="237" type="line"/>
      <point x="51" y="106" type="line"/>
    </contour>
  </outline>
</glyph>
<glyph name="Oslash" format="2">
  <advance width="788"/>
  <unicode hex="00D8"/>
  <anchor x="434" y="0" name="bottom"/>
  <anchor x="434" y="700" name="top"/>
  <outline>
    <contour>
      <point x="94" y="6" type="line"/>
      <point x="140" y="-23" type="line"/>
      <point x="679" y="701" type="line"/>
      <point x="632" y="730" type="line"/>
    </contour>
    <component base="O"/>
  </outline>
</glyph>
<glyph name="Thorn" format="2">
  <advance width="661"/>
  <unicode hex="00DE"/>
  <anchor x="330" y="0" name="bottom"/>
  <anchor x="330" y="700" name="top"/>
  <outline>
    <contour>
      <point x="266" y="154" type="line"/>
      <point x="341" y="155" type="line"/>
      <point x="384" y="158"/>
      <point x="629" y="185"/>
      <point x="628" y="382" type="curve" smooth="yes"/>
      <point x="627" y="516"/>
      <point x="477" y="561"/>
      <point x="370" y="558" type="curve" smooth="yes"/>
      <point x="243" y="558" type="line"/>
      <point x="243" y="156" type="line"/>
    </contour>
    <contour>
      <point x="266" y="229" type="curve"/>
      <point x="266" y="520" type="line"/>
      <point x="275" y="527"/>
      <point x="303" y="532"/>
      <point x="329" y="532" type="curve" smooth="yes"/>
      <point x="405" y="532"/>
      <point x="464" y="460"/>
      <point x="464" y="351" type="curve" smooth="yes"/>
      <point x="464" y="267"/>
      <point x="420" y="185"/>
      <point x="363" y="185" type="curve" smooth="yes"/>
      <point x="328" y="185"/>
      <point x="299" y="202"/>
    </contour>
    <component base="I"/>
  </outline>
</glyph>
<glyph name="germandbls" format="2">
  <advance width="631"/>
  <unicode hex="00DF"/>
  <anchor x="330" y="0" name="bottom"/>
  <anchor x="330" y="750" name="top"/>
  <outline>
    <contour>
      <point x="267" y="685" type="curve" smooth="yes"/>
      <point x="343" y="685"/>
      <point x="385" y="594"/>
      <point x="385" y="469" type="curve"/>
      <point x="344" y="443"/>
      <point x="284" y="416"/>
      <point x="284" y="352" type="curve" smooth="yes"/>
      <point x="284" y="211"/>
      <point x="504" y="174"/>
      <point x="504" y="64" type="curve" smooth="yes"/>
      <point x="504" y="30"/>
      <point x="485" y="8"/>
      <point x="456" y="8" type="curve" smooth="yes"/>
      <point x="388" y="8"/>
      <point x="343" y="96"/>
      <point x="296" y="186" type="curve"/>
      <point x="283" y="188" type="line"/>
      <point x="281" y="43" type="line"/>
      <point x="304" y="13"/>
      <point x="355" y="-16"/>
      <point x="445" y="-19" type="curve"/>
      <point x="540" y="18"/>
      <point x="621" y="48"/>
      <point x="621" y="137" type="curve" smooth="yes"/>
      <point x="621" y="286"/>
      <point x="388" y="321"/>
      <point x="389" y="440" type="curve"/>
      <point x="436" y="459"/>
      <point x="501" y="499"/>
      <point x="501" y="599" type="curve" smooth="yes"/>
      <point x="501" y="721"/>
      <point x="404" y="755"/>
      <point x="312" y="755" type="curve"/>
      <point x="225" y="735"/>
      <point x="96" y="622"/>
      <point x="80" y="539" type="curve"/>
      <point x="80" y="480" type="line"/>
      <point x="10" y="476" type="line"/>
      <point x="10" y="456" type="line"/>
      <point x="81" y="456" type="line"/>
      <point x="81" y="0" type="line" name="_corner00"/>
      <point x="225" y="0" type="line"/>
      <point x="221" y="677" type="line"/>
      <point x="237" y="682"/>
      <point x="252" y="685"/>
    </contour>
  </outline>
</glyph>
<glyph name="ae" format="2">
  <advance width="767"/>
  <unicode hex="00E6"/>
  <anchor x="697" y="0" name="bottom"/>
  <anchor x="697" y="480" name="top"/>
  <outline>
    <contour>
      <point x="57" y="357" type="line"/>
      <point x="83" y="389"/>
      <point x="122" y="406"/>
      <point x="163" y="406" type="curve" smooth="yes"/>
      <point x="222" y="406"/>
      <point x="293" y="373"/>
      <point x="293" y="303" type="curve" smooth="yes"/>
      <point x="293" y="248" type="line"/>
      <point x="435" y="150" type="line"/>
      <point x="417" y="340" type="line" smooth="yes"/>
      <point x="407" y="446"/>
      <point x="342" y="504"/>
      <point x="210" y="494" type="curve"/>
      <point x="156" y="461"/>
      <point x="104" y="422"/>
      <point x="50" y="367" type="curve"/>
    </contour>
    <contour>
      <point x="154" y="204" type="curve"/>
      <point x="196" y="218"/>
      <point x="252" y="228"/>
      <point x="309" y="210" type="curve"/>
      <point x="309" y="280" type="line"/>
      <point x="187" y="258"/>
      <point x="76" y="185"/>
      <point x="39" y="145" type="curve"/>
      <point x="15" y="61"/>
      <point x="64" y="-14"/>
      <point x="184" y="-14" type="curve"/>
      <point x="232" y="7"/>
      <point x="281" y="39"/>
      <point x="364" y="135" type="curve"/>
      <point x="359" y="143" type="line"/>
      <point x="293" y="86"/>
      <point x="256" y="83"/>
      <point x="240" y="83" type="curve" smooth="yes"/>
      <point x="175" y="83"/>
      <point x="138" y="141"/>
    </contour>
    <component base="e" xScale="0.98" xOffset="273"/>
  </outline>
</glyph>
<glyph name="eth" format="2">
  <advance width="589"/>
  <unicode hex="00F0"/>
  <anchor x="284" y="0" name="bottom"/>
  <anchor x="289" y="240" name="center"/>
  <anchor x="515" y="10" name="ogonek"/>
  <anchor x="284" y="750" name="top"/>
  <anchor x="552" y="480" name="topright"/>
  <outline>
    <contour>
      <point x="318" y="25" type="curve" smooth="yes"/>
      <point x="250" y="22"/>
      <point x="189" y="132"/>
      <point x="189" y="271" type="curve" smooth="yes"/>
      <point x="189" y="375"/>
      <point x="222" y="462"/>
      <point x="266" y="462" type="curve" smooth="yes"/>
      <point x="331" y="462"/>
      <point x="388" y="343"/>
      <point x="388" y="204" type="curve" smooth="yes"/>
      <point x="388" y="104"/>
      <point x="358" y="27"/>
    </contour>
    <contour>
      <point x="295" y="494" type="curve"/>
      <point x="197" y="480"/>
      <point x="33" y="416"/>
      <point x="33" y="226" type="curve" smooth="yes"/>
      <point x="33" y="108"/>
      <point x="106" y="-15"/>
      <point x="273" y="-15" type="curve" smooth="yes"/>
      <point x="284" y="-15"/>
      <point x="296" y="-14"/>
      <point x="309" y="-13" type="curve"/>
      <point x="366" y="11"/>
      <point x="544" y="73"/>
      <point x="544" y="258" type="curve" smooth="yes"/>
      <point x="544" y="495"/>
      <point x="373" y="698"/>
      <point x="160" y="756" type="curve"/>
      <point x="151" y="736" type="line"/>
      <point x="264" y="700"/>
      <point x="365" y="563"/>
      <point x="384" y="452" type="curve"/>
      <point x="353" y="473"/>
      <point x="320" y="487"/>
    </contour>
    <contour>
      <point x="140" y="558" type="line"/>
      <point x="152" y="537" type="line"/>
      <point x="444" y="719" type="line"/>
      <point x="431" y="738" type="line"/>
    </contour>
  </outline>
</glyph>
<glyph name="divide" format="2">
  <advance width="476"/>
  <unicode hex="00F7"/>
  <outline>
    <contour>
      <point x="50" y="207" type="line"/>
      <point x="426" y="207" type="line"/>
      <point x="426" y="265" type="line"/>
      <point x="50" y="265" type="line"/>
    </contour>
    <contour>
      <point x="238" y="316" type="curve" smooth="yes"/>
      <point x="269" y="316"/>
      <point x="292" y="341"/>
      <point x="292" y="371" type="curve" smooth="yes"/>
      <point x="292" y="401"/>
      <point x="269" y="425"/>
      <point x="238" y="425" type="curve" smooth="yes"/>
      <point x="209" y="425"/>
      <point x="184" y="401"/>
      <point x="184" y="371" type="curve" smooth="yes"/>
      <point x="184" y="341"/>
      <point x="209" y="316"/>
    </contour>
    <contour>
      <point x="238" y="46" type="curve" smooth="yes"/>
      <point x="269" y="46"/>
      <point x="292" y="71"/>
      <point x="292" y="101" type="curve" smooth="yes"/>
      <point x="292" y="131"/>
      <point x="269" y="155"/>
      <point x="238" y="155" type="curve" smooth="yes"/>
      <point x="209" y="155"/>
      <point x="184" y="131"/>
      <point x="184" y="101" type="curve" smooth="yes"/>
      <point x="184" y="71"/>
      <point x="209" y="46"/>
    </contour>
  </outline>
</glyph>
<glyph name="oslash" format="2">
  <advance width="557"/>
  <unicode hex="00F8"/>
  <anchor x="300" y="480" name="top"/>
  <outline>
    <contour>
      <point x="62" y="-13" type="line"/>
      <point x="95" y="-36" type="line"/>
      <point x="497" y="504" type="line"/>
      <point x="463" y="527" type="line"/>
    </contour>
    <component base="o"/>
  </outline>
</glyph>
<glyph name="thorn" format="2">
  <advance width="566"/>
  <unicode hex="00FE"/>
  <anchor x="289" y="0" name="bottom"/>
  <anchor x="289" y="480" name="top"/>
  <outline>
    <contour>
      <point x="77" y="750" type="line" name="_corner02"/>
      <point x="72" y="-270" type="line" name="_corner00"/>
      <point x="213" y="-270" type="line" name="_corner01"/>
      <point x="210" y="34" type="line"/>
      <point x="213" y="70" type="line"/>
      <point x="214" y="750" type="line"/>
    </contour>
    <contour>
      <point x="206" y="364" type="curve"/>
      <point x="209" y="350" type="line"/>
      <point x="239" y="380"/>
      <point x="267" y="394"/>
      <point x="298" y="394" type="curve" smooth="yes"/>
      <point x="345" y="394"/>
      <point x="386" y="340"/>
      <point x="386" y="202" type="curve" smooth="yes"/>
      <point x="386" y="86"/>
      <point x="354" y="21"/>
      <point x="310" y="21" type="curve" smooth="yes"/>
      <point x="276" y="21"/>
      <point x="228" y="53"/>
      <point x="206" y="124" type="curve"/>
      <point x="75" y="38" type="line"/>
      <point x="110" y="16"/>
      <point x="189" y="-14"/>
      <point x="285" y="-14" type="curve"/>
      <point x="353" y="7"/>
      <point x="535" y="76"/>
      <point x="535" y="270" type="curve" smooth="yes"/>
      <point x="535" y="387"/>
      <point x="452" y="494"/>
      <point x="339" y="494" type="curve"/>
      <point x="316" y="475"/>
      <point x="208" y="386"/>
    </contour>
  </outline>
</glyph>
<glyph name="idotless" format="2">
  <advance width="315"/>
  <unicode hex="0131"/>
  <anchor x="157" y="0" name="bottom"/>
  <anchor x="281" y="10" name="ogonek"/>
  <anchor x="166" y="480" name="top"/>
  <outline>
    <contour>
      <point x="236" y="0" type="line" name="_corner02"/>
      <point x="236" y="480" type="line"/>
      <point x="92" y="480" type="line" name="_corner00"/>
      <point x="92" y="0" type="line" name="_corner01"/>
    </contour>
  </outline>
</glyph>
<glyph name="Lslash" format="2">
  <advance width="675"/>
  <unicode hex="0141"/>
  <outline>
    <contour>
      <point x="515" y="496" type="line"/>
      <point x="491" y="536" type="line"/>
      <point x="20" y="255" type="line"/>
      <point x="44" y="215" type="line"/>
    </contour>
    <component base="L" xOffset="49"/>
  </outline>
</glyph>
<glyph name="lslash" format="2">
  <advance width="325"/>
  <unicode hex="0142"/>
  <outline>
    <contour>
      <point x="30" y="376" type="line"/>
      <point x="49" y="339" type="line"/>
      <point x="332" y="480" type="line"/>
      <point x="314" y="517" type="line"/>
    </contour>
    <component base="l" xOffset="22"/>
  </outline>
</glyph>
<glyph name="OE" format="2">
  <advance width="983"/>
  <unicode hex="0152"/>
  <outline>
    <contour>
      <point x="454" y="700" type="line"/>
      <point x="454" y="0" type="line"/>
      <point x="610" y="0" type="line"/>
      <point x="610" y="700" type="line"/>
    </contour>
    <contour>
      <point x="565" y="375" type="line"/>
      <point x="557" y="350" type="line"/>
      <point x="740" y="350" type="line"/>
      <point x="794" y="235" type="line"/>
      <point x="813" y="235" type="line"/>
      <point x="813" y="368" type="line"/>
      <point x="813" y="360" type="line"/>
      <point x="813" y="493" type="line"/>
      <point x="794" y="493" type="line"/>
      <point x="740" y="375" type="line"/>
    </contour>
    <contour>
      <point x="565" y="25" type="line"/>
      <point x="557" y="0" type="line"/>
      <point x="919" y="0" type="line"/>
      <point x="904" y="25" type="line"/>
    </contour>
    <contour>
      <point x="921" y="0" type="line"/>
      <point x="943" y="185" type="line"/>
      <point x="928" y="188" type="line"/>
      <point x="906" y="151"/>
      <point x="797" y="14"/>
      <point x="767" y="15" type="curve"/>
    </contour>
    <contour>
      <point x="923" y="703" type="line"/>
      <point x="754" y="689" type="line"/>
      <point x="784" y="690"/>
      <point x="902" y="553"/>
      <point x="923" y="516" type="curve"/>
      <point x="939" y="516" type="line"/>
    </contour>
    <contour>
      <point x="565" y="675" type="line"/>
      <point x="897" y="675" type="line"/>
      <point x="899" y="700" type="line"/>
      <point x="557" y="700" type="line"/>
    </contour>
    <contour>
      <point x="454" y="643" type="curve"/>
      <point x="454" y="700" type="line"/>
      <point x="450" y="700" type="line"/>
      <point x="245" y="645"/>
      <point x="39" y="534"/>
      <point x="39" y="316" type="curve" smooth="yes"/>
      <point x="39" y="145"/>
      <point x="194" y="0"/>
      <point x="317" y="2" type="curve"/>
      <point x="454" y="61" type="line"/>
      <point x="454" y="83" type="line"/>
      <point x="281" y="69"/>
      <point x="204" y="218"/>
      <point x="204" y="394" type="curve" smooth="yes"/>
      <point x="204" y="506"/>
      <point x="243" y="646"/>
      <point x="420" y="646" type="curve" smooth="yes"/>
      <point x="432" y="646"/>
      <point x="443" y="645"/>
    </contour>
  </outline>
</glyph>
<glyph name="florin" format="2">
  <advance width="513"/>
  <unicode hex="0192"/>
  <outline>
    <contour>
      <point x="-53" y="-114" type="curve"/>
      <point x="60" y="-90"/>
      <point x="184" y="-6"/>
      <point x="252" y="90" type="curve"/>
      <point x="310" y="636" type="line" smooth="yes"/>
      <point x="313" y="660"/>
      <point x="334" y="684"/>
      <point x="354" y="698" type="curve"/>
      <point x="500" y="612" type="line"/>
      <point x="540" y="616" type="line"/>
      <point x="583" y="704" type="line"/>
      <point x="538" y="741"/>
      <point x="486" y="764"/>
      <point x="450" y="764" type="curve"/>
      <point x="345" y="743"/>
      <point x="218" y="658"/>
      <point x="144" y="560" type="curve"/>
      <point x="86" y="13" type="line" smooth="yes"/>
      <point x="83" y="-15"/>
      <point x="62" y="-37"/>
      <point x="42" y="-51" type="curve"/>
      <point x="-92" y="38" type="line"/>
      <point x="-132" y="34" type="line"/>
      <point x="-191" y="-54" type="line"/>
      <point x="-147" y="-90"/>
      <point x="-89" y="-114"/>
    </contour>
    <contour>
      <point x="27" y="380" type="line"/>
      <point x="400" y="380" type="line"/>
      <point x="405" y="400" type="line"/>
      <point x="32" y="400" type="line"/>
    </contour>
  </outline>
</glyph>
<glyph name="jdotless" format="2">
  <advance width="361"/>
  <unicode hex="0237"/>
  <anchor x="185" y="-206" name="bottom"/>
  <anchor x="217" y="480" name="top"/>
  <outline>
    <contour>
      <point x="53" y="-114" type="curve"/>
      <point x="10" y="-101" type="line"/>
      <point x="-82" y="-170" type="line"/>
      <point x="-39" y="-237"/>
      <point x="5" y="-250"/>
      <point x="56" y="-254" type="curve"/>
      <point x="172" y="-213"/>
      <point x="269" y="-148"/>
      <point x="287" y="-38" type="curve"/>
      <point x="287" y="480" type="line"/>
      <point x="143" y="480" type="line" name="_corner00"/>
      <point x="143" y="-185" type="line"/>
      <point x="136" y="-196"/>
      <point x="127" y="-202"/>
      <point x="115" y="-202" type="curve" smooth="yes"/>
      <point x="94" y="-202"/>
      <point x="72" y="-183"/>
    </contour>
  </outline>
</glyph>
<glyph name="gravecomb" format="2">
  <advance width="600"/>
  <unicode hex="0300"/>
  <anchor x="239" y="504" name="_top"/>
  <anchor x="210" y="727" name="top"/>
  <outline>
    <contour>
      <point x="273" y="558" type="line"/>
      <point x="291" y="566" type="line"/>
      <point x="253" y="724" type="line"/>
      <point x="114" y="727" type="line"/>
      <point x="105" y="719" type="line"/>
      <point x="105" y="718" type="line"/>
    </contour>
  </outline>
</glyph>
<glyph name="circumflexcomb" format="2">
  <advance width="251"/>
  <unicode hex="0302"/>
  <anchor x="129" y="504" name="_top"/>
  <anchor x="129" y="714" name="top"/>
  <outline>
    <contour>
      <point x="-6" y="551" type="line"/>
      <point x="130" y="631" type="line"/>
      <point x="263" y="551" type="line"/>
      <point x="272" y="559" type="line"/>
      <point x="139" y="739" type="line"/>
      <point x="119" y="739" type="line"/>
      <point x="-14" y="559" type="line"/>
    </contour>
  </outline>
</glyph>
<glyph name="tildecomb" format="2">
  <advance width="600"/>
  <unicode hex="0303"/>
  <anchor x="287" y="551" name="_top"/>
  <anchor x="300" y="738" name="top"/>
  <outline>
    <contour>
      <point x="155" y="593" type="curve"/>
      <point x="175" y="593" type="line"/>
      <point x="175" y="629"/>
      <point x="192" y="638"/>
      <point x="220" y="638" type="curve" smooth="yes"/>
      <point x="260" y="639"/>
      <point x="315" y="627"/>
      <point x="351" y="627" type="curve"/>
      <point x="362" y="633"/>
      <point x="445" y="684"/>
      <point x="445" y="750" type="curve"/>
      <point x="425" y="750" type="line"/>
      <point x="425" y="715"/>
      <point x="418" y="707"/>
      <point x="398" y="706" type="curve" smooth="yes"/>
      <point x="368" y="704"/>
      <point x="320" y="720"/>
      <point x="266" y="720" type="curve"/>
      <point x="250" y="711"/>
      <point x="155" y="660"/>
    </contour>
  </outline>
</glyph>
<glyph name="macroncomb" format="2">
  <advance width="600"/>
  <unicode hex="0304"/>
  <anchor x="285" y="564" name="_top"/>
  <anchor x="285" y="685" name="top"/>
  <outline>
    <contour>
      <point x="173" y="685" type="line"/>
      <point x="173" y="632" type="line"/>
      <point x="397" y="632" type="line"/>
      <point x="397" y="684" type="line"/>
    </contour>
  </outline>
</glyph>
<glyph name="brevecomb" format="2">
  <advance width="600"/>
  <unicode hex="0306"/>
  <anchor x="296" y="517" name="_top"/>
  <anchor x="300" y="729" name="top"/>
  <outline>
    <contour>
      <point x="300" y="576" type="curve" smooth="yes"/>
      <point x="397" y="576"/>
      <point x="443" y="660"/>
      <point x="425" y="737" type="curve"/>
      <point x="412" y="737" type="line"/>
      <point x="412" y="690"/>
      <point x="352" y="661"/>
      <point x="300" y="661" type="curve" smooth="yes"/>
      <point x="248" y="661"/>
      <point x="187" y="690"/>
      <point x="187" y="737" type="curve"/>
      <point x="175" y="737" type="line"/>
      <point x="157" y="660"/>
      <point x="203" y="576"/>
    </contour>
  </outline>
</glyph>
<glyph name="ringcomb" format="2">
  <advance width="291"/>
  <unicode hex="030A"/>
  <anchor x="149" y="496" name="_top"/>
  <anchor x="149" y="737" name="top"/>
  <outline>
    <contour>
      <point x="138" y="544" type="curve"/>
      <point x="156" y="551"/>
      <point x="244" y="573"/>
      <point x="251" y="641" type="curve" smooth="yes"/>
      <point x="255" y="691"/>
      <point x="221" y="734"/>
      <point x="165" y="737" type="curve"/>
      <point x="146" y="733"/>
      <point x="54" y="701"/>
      <point x="48" y="640" type="curve" smooth="yes"/>
      <point x="44" y="591"/>
      <point x="75" y="548"/>
    </contour>
    <contour>
      <point x="155" y="571" type="curve" smooth="yes"/>
      <point x="132" y="571"/>
      <point x="117" y="607"/>
      <point x="117" y="649" type="curve" smooth="yes"/>
      <point x="117" y="680"/>
      <point x="126" y="709"/>
      <point x="143" y="709" type="curve" smooth="yes"/>
      <point x="166" y="709"/>
      <point x="182" y="673"/>
      <point x="182" y="632" type="curve" smooth="yes"/>
      <point x="182" y="600"/>
      <point x="173" y="571"/>
    </contour>
  </outline>
</glyph>
<glyph name="hungarumlautcomb" format="2">
  <advance width="600"/>
  <unicode hex="030B"/>
  <anchor x="229" y="504" name="_top"/>
  <anchor x="229" y="752" name="top"/>
  <outline>
    <contour>
      <point x="140" y="572" type="line"/>
      <point x="257" y="719" type="line"/>
      <point x="257" y="720" type="line"/>
      <point x="249" y="727" type="line"/>
      <point x="125" y="724" type="line"/>
      <point x="123" y="579" type="line"/>
    </contour>
    <contour>
      <point x="249" y="569" type="line"/>
      <point x="420" y="708" type="line"/>
      <point x="420" y="709" type="line"/>
      <point x="412" y="717" type="line"/>
      <point x="286" y="726" type="line"/>
      <point x="232" y="578" type="line"/>
    </contour>
  </outline>
</glyph>
<glyph name="cedillacomb" format="2">
  <advance width="600"/>
  <unicode hex="0327"/>
  <anchor x="259" y="0" name="_bottom"/>
  <anchor x="259" y="-250" name="bottom"/>
  <outline>
    <contour>
      <point x="174" y="-173" type="line"/>
      <point x="174" y="-216"/>
      <point x="204" y="-233"/>
      <point x="261" y="-233" type="curve" smooth="yes"/>
      <point x="296" y="-233"/>
      <point x="398" y="-189"/>
      <point x="398" y="-122" type="curve" smooth="yes"/>
      <point x="398" y="-74"/>
      <point x="353" y="-48"/>
      <point x="282" y="-45" type="curve"/>
      <point x="325" y="7" type="line"/>
      <point x="301" y="7" type="line"/>
      <point x="214" y="-98" type="line"/>
      <point x="239" y="-99" type="line"/>
      <point x="293" y="-102"/>
      <point x="312" y="-123"/>
      <point x="312" y="-161" type="curve" smooth="yes"/>
      <point x="312" y="-195"/>
      <point x="296" y="-216"/>
      <point x="284" y="-217" type="curve"/>
      <point x="272" y="-217"/>
      <point x="259" y="-195"/>
      <point x="259" y="-139" type="curve"/>
      <point x="239" y="-140" type="line"/>
    </contour>
  </outline>
</glyph>
<glyph name="ogonekcomb" format="2">
  <advance width="600"/>
  <unicode hex="0328"/>
  <anchor x="407" y="43" name="_ogonek"/>
  <outline>
    <contour>
      <point x="401" y="46" type="curve"/>
      <point x="392" y="52" type="line"/>
      <point x="352" y="30"/>
      <point x="284" y="-42"/>
      <point x="272" y="-73" type="curve"/>
      <point x="262" y="-161"/>
      <point x="313" y="-207"/>
      <point x="391" y="-207" type="curve"/>
      <point x="432" y="-180"/>
      <point x="471" y="-150"/>
      <point x="505" y="-114" type="curve"/>
      <point x="499" y="-104" type="line"/>
      <point x="474" y="-120"/>
      <point x="450" y="-132"/>
      <point x="425" y="-132" type="curve" smooth="yes"/>
      <point x="391" y="-132"/>
      <point x="365" y="-92"/>
      <point x="365" y="-45" type="curve" smooth="yes"/>
      <point x="365" y="-2"/>
      <point x="379" y="29"/>
    </contour>
  </outline>
</glyph>
<glyph name="Germandbls" format="2">
  <advance width="744"/>
  <unicode hex="1E9E"/>
  <outline>
    <contour>
      <point x="112" y="491" type="curve"/>
      <point x="112" y="0" type="line" name="_corner00"/>
      <point x="270" y="0" type="line"/>
      <point x="270" y="586"/>
      <point x="302" y="661"/>
      <point x="427" y="685" type="curve"/>
      <point x="494" y="685" type="line"/>
      <point x="385" y="346" type="line"/>
      <point x="401" y="336" type="line"/>
      <point x="693" y="695" type="line"/>
      <point x="685" y="709" type="line"/>
      <point x="441" y="709" type="line"/>
      <point x="214" y="660"/>
      <point x="133" y="575"/>
    </contour>
    <contour>
      <point x="327" y="136" type="line"/>
      <point x="336" y="62"/>
      <point x="385" y="-14"/>
      <point x="477" y="-14" type="curve"/>
      <point x="560" y="26"/>
      <point x="724" y="96"/>
      <point x="724" y="257" type="curve" smooth="yes"/>
      <point x="724" y="368"/>
      <point x="651" y="444"/>
      <point x="560" y="444" type="curve"/>
      <point x="400" y="351" type="line"/>
      <point x="527" y="360"/>
      <point x="615" y="301"/>
      <point x="610" y="167" type="curve" smooth="yes"/>
      <point x="608" y="101"/>
      <point x="578" y="56"/>
      <point x="532" y="56" type="curve" smooth="yes"/>
      <point x="478" y="56"/>
      <point x="431" y="118"/>
      <point x="431" y="202" type="curve"/>
      <point x="413" y="206" type="line"/>
    </contour>
  </outline>
</glyph>
<glyph name="endash" format="2">
  <advance width="462"/>
  <unicode hex="2013"/>
  <outline>
    <contour>
      <point x="40" y="281" type="line"/>
      <point x="40" y="220" type="line"/>
      <point x="422" y="220" type="line"/>
      <point x="422" y="280" type="line"/>
    </contour>
  </outline>
</glyph>
<glyph name="emdash" format="2">
  <advance width="822"/>
  <unicode hex="2014"/>
  <outline>
    <contour>
      <point x="40" y="281" type="line"/>
      <point x="40" y="220" type="line"/>
      <point x="782" y="220" type="line"/>
      <point x="782" y="280" type="line"/>
    </contour>
  </outline>
</glyph>
<glyph name="dagger" format="2">
  <advance width="336"/>
  <unicode hex="2020"/>
  <outline>
    <contour>
      <point x="178" y="151" type="line"/>
      <point x="142" y="151" type="line"/>
      <point x="142" y="257" type="line"/>
      <point x="142" y="347"/>
      <point x="132" y="399"/>
      <point x="117" y="452" type="curve"/>
      <point x="140" y="481"/>
      <point x="145" y="513"/>
      <point x="145" y="583" type="curve"/>
      <point x="97" y="583"/>
      <point x="70" y="559"/>
      <point x="48" y="559" type="curve"/>
      <point x="12" y="598" type="line"/>
      <point x="48" y="639" type="line"/>
      <point x="70" y="639"/>
      <point x="95" y="617"/>
      <point x="143" y="617" type="curve"/>
      <point x="143" y="702"/>
      <point x="118" y="713"/>
      <point x="118" y="735" type="curve"/>
      <point x="159" y="772" type="line"/>
      <point x="199" y="735" type="line"/>
      <point x="199" y="713"/>
      <point x="176" y="700"/>
      <point x="176" y="615" type="curve"/>
      <point x="222" y="615"/>
      <point x="248" y="637"/>
      <point x="270" y="637" type="curve"/>
      <point x="306" y="598" type="line"/>
      <point x="270" y="559" type="line"/>
      <point x="248" y="559"/>
      <point x="222" y="583"/>
      <point x="176" y="583" type="curve"/>
      <point x="176" y="513"/>
      <point x="179" y="481"/>
      <point x="202" y="452" type="curve"/>
      <point x="187" y="399"/>
      <point x="178" y="347"/>
      <point x="178" y="257" type="curve"/>
    </contour>
  </outline>
</glyph>
<glyph name="daggerdbl" format="2">
  <advance width="600"/>
  <unicode hex="2021"/>
  <outline>
    <contour>
      <point x="172" y="15" type="line"/>
      <point x="208" y="54" type="line"/>
      <point x="230" y="54"/>
      <point x="257" y="30"/>
      <point x="305" y="30" type="curve"/>
      <point x="305" y="100"/>
      <point x="300" y="132"/>
      <point x="277" y="161" type="curve"/>
      <point x="289" y="203"/>
      <point x="298" y="245"/>
      <point x="301" y="306" type="curve"/>
      <point x="298" y="368"/>
      <point x="289" y="410"/>
      <point x="277" y="452" type="curve"/>
      <point x="300" y="481"/>
      <point x="305" y="513"/>
      <point x="305" y="583" type="curve"/>
      <point x="257" y="583"/>
      <point x="230" y="559"/>
      <point x="208" y="559" type="curve"/>
      <point x="172" y="598" type="line"/>
      <point x="208" y="639" type="line"/>
      <point x="230" y="639"/>
      <point x="255" y="617"/>
      <point x="303" y="617" type="curve"/>
      <point x="303" y="702"/>
      <point x="278" y="713"/>
      <point x="278" y="735" type="curve"/>
      <point x="319" y="772" type="line"/>
      <point x="359" y="735" type="line"/>
      <point x="359" y="713"/>
      <point x="336" y="700"/>
      <point x="336" y="615" type="curve"/>
      <point x="382" y="615"/>
      <point x="408" y="637"/>
      <point x="430" y="637" type="curve"/>
      <point x="466" y="598" type="line"/>
      <point x="430" y="559" type="line"/>
      <point x="408" y="559"/>
      <point x="382" y="583"/>
      <point x="336" y="583" type="curve"/>
      <point x="336" y="513"/>
      <point x="339" y="481"/>
      <point x="362" y="452" type="curve"/>
      <point x="350" y="410"/>
      <point x="342" y="368"/>
      <point x="339" y="307" type="curve"/>
      <point x="342" y="245"/>
      <point x="350" y="203"/>
      <point x="362" y="161" type="curve"/>
      <point x="339" y="132"/>
      <point x="336" y="100"/>
      <point x="336" y="30" type="curve"/>
      <point x="382" y="30"/>
      <point x="408" y="54"/>
      <point x="430" y="54" type="curve"/>
      <point x="466" y="15" type="line"/>
      <point x="430" y="-24" type="line"/>
      <point x="408" y="-24"/>
      <point x="382" y="-2"/>
      <point x="336" y="-2" type="curve"/>
      <point x="336" y="-87"/>
      <point x="359" y="-100"/>
      <point x="359" y="-122" type="curve"/>
      <point x="319" y="-159" type="line"/>
      <point x="278" y="-122" type="line"/>
      <point x="278" y="-100"/>
      <point x="303" y="-89"/>
      <point x="303" y="-4" type="curve"/>
      <point x="255" y="-4"/>
      <point x="230" y="-26"/>
      <point x="208" y="-26" type="curve"/>
    </contour>
  </outline>
</glyph>
<glyph name="guilsinglleft" format="2">
  <advance width="290"/>
  <unicode hex="2039"/>
  <outline>
    <contour>
      <point x="286" y="-36" type="line"/>
      <point x="175" y="230" type="line"/>
      <point x="175" y="235" type="line"/>
      <point x="286" y="491" type="line"/>
      <point x="277" y="497" type="line"/>
      <point x="30" y="227" type="line"/>
      <point x="30" y="221" type="line"/>
      <point x="275" y="-42" type="line"/>
    </contour>
  </outline>
</glyph>
<glyph name="fraction" format="2">
  <advance width="823"/>
  <unicode hex="2044"/>
  <outline>
    <contour>
      <point x="69" y="-250" type="line"/>
      <point x="136" y="-250" type="line"/>
      <point x="592" y="750" type="line"/>
      <point x="525" y="750" type="line"/>
    </contour>
  </outline>
</glyph>
<glyph name="foursuperior" format="2">
  <advance width="400"/>
  <unicode hex="2074"/>
  <outline>
    <contour>
      <point x="199" y="684" type="curve"/>
      <point x="310" y="684" type="line"/>
      <point x="314" y="676" type="line"/>
      <point x="111" y="393" type="line"/>
      <point x="7" y="379" type="line"/>
      <point x="82" y="500"/>
      <point x="146" y="592"/>
    </contour>
    <contour>
      <point x="26" y="396" type="line"/>
      <point x="386" y="403" type="line"/>
      <point x="386" y="385" type="line"/>
      <point x="7" y="379" type="line"/>
    </contour>
    <contour>
      <point x="316" y="264" type="line"/>
      <point x="311" y="259" type="line"/>
      <point x="226" y="236" type="line"/>
      <point x="226" y="467" type="line"/>
      <point x="300" y="483" type="line"/>
      <point x="316" y="472" type="line"/>
    </contour>
  </outline>
</glyph>
<glyph name="euro" format="2">
  <advance width="652"/>
  <unicode hex="20AC"/>
  <anchor x="342" y="0" name="bottom"/>
  <anchor x="616" y="700" name="top"/>
  <outline>
    <contour>
      <point x="69" y="321" type="curve" smooth="yes"/>
      <point x="69" y="111"/>
      <point x="210" y="-7"/>
      <point x="389" y="-14" type="curve"/>
      <point x="493" y="41"/>
      <point x="587" y="107"/>
      <point x="642" y="154" type="curve"/>
      <point x="633" y="169" type="line"/>
      <point x="563" y="122"/>
      <point x="528" y="101"/>
      <point x="461" y="66" type="curve"/>
      <point x="314" y="66"/>
      <point x="220" y="234"/>
      <point x="220" y="426" type="curve" smooth="yes"/>
      <point x="220" y="563"/>
      <point x="267" y="652"/>
      <point x="359" y="652" type="curve" smooth="yes"/>
      <point x="472" y="652"/>
      <point x="562" y="579"/>
      <point x="598" y="476" type="curve"/>
      <point x="612" y="477" type="line"/>
      <point x="609" y="685" type="line"/>
      <point x="542" y="704"/>
      <point x="492" y="714"/>
      <point x="387" y="714" type="curve"/>
      <point x="276" y="668"/>
      <point x="69" y="544"/>
    </contour>
    <contour>
      <point x="0" y="413" type="line"/>
      <point x="0" y="383" type="line"/>
      <point x="473" y="383" type="line"/>
      <point x="473" y="413" type="line"/>
    </contour>
    <contour>
      <point x="0" y="343" type="line"/>
      <point x="0" y="313" type="line"/>
      <point x="473" y="313" type="line"/>
      <point x="473" y="343" type="line"/>
    </contour>
  </outline>
</glyph>
<glyph name="trademark" format="2">
  <advance width="742"/>
  <unicode hex="2122"/>
  <anchor x="350" y="490" name="bottom"/>
  <anchor x="350" y="840" name="center"/>
  <anchor x="350" y="1190" name="top"/>
  <outline>
    <contour>
      <point x="55" y="803" type="line"/>
      <point x="55" y="793" type="line"/>
      <point x="157" y="794" type="line"/>
      <point x="157" y="803" type="line"/>
    </contour>
    <contour>
      <point x="17" y="805" type="line"/>
      <point x="7" y="712" type="line"/>
      <point x="18" y="712" type="line"/>
      <point x="86" y="803" type="line"/>
      <point x="52" y="803" type="line"/>
    </contour>
    <contour>
      <point x="252" y="803" type="line"/>
      <point x="157" y="803" type="line"/>
      <point x="157" y="794" type="line"/>
      <point x="252" y="793" type="line"/>
    </contour>
    <contour>
      <point x="290" y="805" type="line"/>
      <point x="256" y="803" type="line"/>
      <point x="222" y="803" type="line"/>
      <point x="290" y="712" type="line"/>
      <point x="301" y="712" type="line"/>
    </contour>
    <contour>
      <point x="119" y="803" type="line"/>
      <point x="119" y="490" type="line" name="_corner00"/>
      <point x="189" y="490" type="line" name="_corner01"/>
      <point x="189" y="803" type="line"/>
    </contour>
    <contour>
      <point x="505" y="489" type="line"/>
      <point x="510" y="489" type="line"/>
      <point x="630" y="803" type="line"/>
      <point x="615" y="803" type="line"/>
      <point x="535" y="596" type="line"/>
      <point x="447" y="803" type="line"/>
      <point x="365" y="803" type="line"/>
    </contour>
    <contour>
      <point x="359" y="803" type="line" name="_corner04"/>
      <point x="359" y="490" type="line" name="_corner02"/>
      <point x="374" y="490" type="line" name="_corner03"/>
      <point x="374" y="803" type="line"/>
    </contour>
    <contour>
      <point x="621" y="803" type="line"/>
      <point x="621" y="490" type="line" name="_corner05"/>
      <point x="692" y="490" type="line" name="_corner06"/>
      <point x="692" y="803" type="line" name="_corner07"/>
    </contour>
  </outline>
</glyph>
<glyph name="minus" format="2">
  <advance width="476"/>
  <unicode hex="2212"/>
  <outline>
    <contour>
      <point x="50" y="207" type="line"/>
      <point x="426" y="207" type="line"/>
      <point x="426" y="265" type="line"/>
      <point x="50" y="265" type="line"/>
    </contour>
  </outline>
</glyph>
<glyph name="approxequal" format="2">
  <advance width="552"/>
  <unicode hex="2248"/>
  <outline>
    <contour>
      <point x="93" y="247" type="line"/>
      <point x="113" y="275"/>
      <point x="148" y="291"/>
      <point x="184" y="291" type="curve" smooth="yes"/>
      <point x="244" y="291"/>
      <point x="300" y="247"/>
      <point x="368" y="247" type="curve" smooth="yes"/>
      <point x="413" y="247"/>
      <point x="474" y="278"/>
      <point x="502" y="318" type="curve"/>
      <point x="463" y="349" type="line"/>
      <point x="443" y="321"/>
      <point x="408" y="305"/>
      <point x="372" y="305" type="curve" smooth="yes"/>
      <point x="312" y="305"/>
      <point x="256" y="349"/>
      <point x="188" y="349" type="curve" smooth="yes"/>
      <point x="143" y="349"/>
      <point x="78" y="319"/>
      <point x="50" y="279" type="curve"/>
    </contour>
    <contour>
      <point x="93" y="121" type="line"/>
      <point x="113" y="149"/>
      <point x="148" y="165"/>
      <point x="184" y="165" type="curve" smooth="yes"/>
      <point x="244" y="165"/>
      <point x="300" y="121"/>
      <point x="368" y="121" type="curve" smooth="yes"/>
      <point x="413" y="121"/>
      <point x="474" y="152"/>
      <point x="502" y="192" type="curve"/>
      <point x="463" y="223" type="line"/>
      <point x="443" y="195"/>
      <point x="408" y="179"/>
      <point x="372" y="179" type="curve" smooth="yes"/>
      <point x="312" y="179"/>
      <point x="256" y="223"/>
      <point x="188" y="223" type="curve" smooth="yes"/>
      <point x="143" y="223"/>
      <point x="78" y="193"/>
      <point x="50" y="153" type="curve"/>
    </contour>
  </outline>
</glyph>
<glyph name="notequal" format="2">
  <advance width="476"/>
  <unicode hex="2260"/>
  <outline>
    <contour>
      <point x="131" y="41" type="line"/>
      <point x="185" y="26" type="line"/>
      <point x="339" y="423" type="line"/>
      <point x="286" y="438" type="line"/>
    </contour>
    <component base="minus" yOffset="-64"/>
    <component base="minus" yOffset="54"/>
  </outline>
</glyph>
<glyph name="fi" format="2">
  <advance width="648"/>
  <unicode hex="FB01"/>
  <anchor x="550" y="0" name="bottom"/>
  <anchor x="664" y="10" name="ogonek"/>
  <anchor x="549" y="480" name="top"/>
  <outline>
    <contour>
      <point x="436" y="595" type="curve"/>
      <point x="484" y="584" type="line"/>
      <point x="581" y="679" type="line"/>
      <point x="530" y="741"/>
      <point x="441" y="763"/>
      <point x="342" y="763" type="curve"/>
      <point x="226" y="729"/>
      <point x="112" y="639"/>
      <point x="80" y="539" type="curve"/>
      <point x="80" y="480" type="line"/>
      <point x="10" y="476" type="line"/>
      <point x="10" y="456" type="line"/>
      <point x="81" y="456" type="line"/>
      <point x="81" y="0" type="line" name="_corner02"/>
      <point x="225" y="0" type="line" name="_corner03"/>
      <point x="225" y="458" type="line"/>
      <point x="403" y="453" type="line"/>
      <point x="457" y="460" type="line"/>
      <point x="457" y="480" type="line"/>
      <point x="224" y="480" type="line"/>
      <point x="224" y="663" type="line"/>
      <point x="241" y="669"/>
      <point x="269" y="678"/>
      <point x="303" y="678" type="curve" smooth="yes"/>
      <point x="353" y="678"/>
      <point x="422" y="658"/>
    </contour>
    <contour>
      <point x="569" y="0" type="line" name="_corner01"/>
      <point x="569" y="480" type="line"/>
      <point x="425" y="480" type="line"/>
      <point x="425" y="0" type="line" name="_corner00"/>
    </contour>
  </outline>
</glyph>
<glyph name="fl" format="2">
  <advance width="648"/>
  <unicode hex="FB02"/>
  <anchor x="108" y="0" name="bottom"/>
  <anchor x="495" y="375" name="center"/>
  <anchor x="108" y="750" name="top"/>
  <anchor x="628" y="750" name="topright"/>
  <outline>
    <contour>
      <point x="430" y="616" type="curve"/>
      <point x="435" y="710" type="line"/>
      <point x="353" y="707" type="line"/>
      <point x="202" y="716"/>
      <point x="97" y="624"/>
      <point x="80" y="539" type="curve"/>
      <point x="80" y="480" type="line"/>
      <point x="10" y="476" type="line"/>
      <point x="10" y="456" type="line"/>
      <point x="81" y="456" type="line"/>
      <point x="81" y="0" type="line" name="_corner00"/>
      <point x="225" y="0" type="line" name="_corner01"/>
      <point x="225" y="458" type="line"/>
      <point x="292" y="453" type="line"/>
      <point x="346" y="460" type="line"/>
      <point x="346" y="480" type="line"/>
      <point x="224" y="480" type="line"/>
      <point x="224" y="649" type="line"/>
      <point x="289" y="685"/>
      <point x="376" y="677"/>
    </contour>
    <contour>
      <point x="569" y="0" type="line" name="_corner04"/>
      <point x="569" y="750" type="line"/>
      <point x="425" y="750" type="line" name="_corner02"/>
      <point x="425" y="0" type="line" name="_corner03"/>
    </contour>
  </outline>
</glyph>
<glyph name="_corner.capSerif" format="2">
  <advance width="600"/>
  <outline>
    <contour>
      <point x="-10" y="0" type="move"/>
      <point x="92" y="0" type="line"/>
      <point x="92" y="16" type="line"/>
      <point x="0" y="30" type="line"/>
    </contour>
  </outline>
</glyph>
<glyph name="_corner.lcSerif" format="2">
  <advance width="86"/>
  <outline>
    <contour>
      <point x="0" y="25" type="move"/>
      <point x="-69" y="10" type="line"/>
      <point x="-69" y="0" type="line"/>
      <point x="36" y="0" type="line"/>
    </contour>
  </outline>
</glyph>
<glyph name="_corner.topSerif" format="2">
  <advance width="600"/>
  <outline>
    <contour>
      <point x="116" y="4" type="move"/>
      <point x="-70" y="-45" type="line"/>
      <point x="-70" y="-55" type="line"/>
      <point x="0" y="-50" type="line"/>
    </contour>
  </outline>
</glyph>
<glyph name="a.ss01" format="2">
  <advance width="502"/>
  <anchor x="251" y="0" name="bottom"/>
  <anchor x="452" y="10" name="ogonek"/>
  <anchor x="251" y="480" name="top"/>
  <outline>
    <contour>
      <point x="54" y="357" type="line"/>
      <point x="80" y="389"/>
      <point x="119" y="406"/>
      <point x="160" y="406" type="curve" smooth="yes"/>
      <point x="219" y="406"/>
      <point x="290" y="373"/>
      <point x="290" y="303" type="curve" smooth="yes"/>
      <point x="290" y="0" type="line"/>
      <point x="432" y="0" type="line" name="_corner00"/>
      <point x="434" y="340" type="line" smooth="yes"/>
      <point x="435" y="446"/>
      <point x="339" y="504"/>
      <point x="207" y="494" type="curve"/>
      <point x="153" y="461"/>
      <point x="101" y="422"/>
      <point x="47" y="367" type="curve"/>
    </contour>
    <contour>
      <point x="151" y="204" type="curve"/>
      <point x="193" y="218"/>
      <point x="249" y="228"/>
      <point x="296" y="210" type="curve"/>
      <point x="296" y="280" type="line"/>
      <point x="184" y="258"/>
      <point x="73" y="185"/>
      <point x="36" y="145" type="curve"/>
      <point x="12" y="61"/>
      <point x="61" y="-14"/>
      <point x="141" y="-14" type="curve"/>
      <point x="194" y="6"/>
      <point x="254" y="40"/>
      <point x="301" y="95" type="curve"/>
      <point x="296" y="103" type="line"/>
      <point x="264" y="89"/>
      <point x="242" y="83"/>
      <point x="224" y="83" type="curve" smooth="yes"/>
      <point x="171" y="82"/>
      <point x="135" y="141"/>
    </contour>
  </outline>
</glyph>
<glyph name="acutecomb.case" format="2">
  <advance width="600"/>
  <anchor x="336" y="700" name="_top"/>
  <anchor x="0" y="0" name="top"/>
  <outline>
    <contour>
      <point x="271" y="741" type="line"/>
      <point x="538" y="868" type="line"/>
      <point x="538" y="869" type="line"/>
      <point x="531" y="878" type="line"/>
      <point x="336" y="878" type="line"/>
      <point x="262" y="750" type="line"/>
    </contour>
  </outline>
</glyph>
<glyph name="brevecomb.case" format="2">
  <advance width="600"/>
  <anchor x="303" y="643" name="_top"/>
  <anchor x="303" y="818" name="top"/>
  <outline>
    <contour>
      <point x="303" y="683" type="curve" smooth="yes"/>
      <point x="407" y="683"/>
      <point x="450" y="761"/>
      <point x="450" y="828" type="curve"/>
      <point x="427" y="828" type="line"/>
      <point x="427" y="782"/>
      <point x="364" y="769"/>
      <point x="303" y="769" type="curve" smooth="yes"/>
      <point x="242" y="769"/>
      <point x="179" y="782"/>
      <point x="179" y="828" type="curve"/>
      <point x="156" y="828" type="line"/>
      <point x="156" y="761"/>
      <point x="199" y="683"/>
    </contour>
  </outline>
</glyph>
<glyph name="circumflexcomb.case" format="2">
  <advance width="251"/>
  <anchor x="129" y="700" name="_top"/>
  <anchor x="129" y="888" name="top"/>
  <outline>
    <contour>
      <point x="-23" y="729" type="line"/>
      <point x="127" y="802" type="line"/>
      <point x="280" y="729" type="line"/>
      <point x="291" y="740" type="line"/>
      <point x="159" y="888" type="line"/>
      <point x="99" y="888" type="line"/>
      <point x="-33" y="740" type="line"/>
    </contour>
  </outline>
</glyph>
<glyph name="dieresiscomb.case" format="2">
  <advance width="290"/>
  <anchor x="145" y="698" name="_top"/>
  <anchor x="0" y="0" name="top"/>
  <outline>
    <contour>
      <point x="230" y="748" type="curve" smooth="yes"/>
      <point x="264" y="748"/>
      <point x="294" y="778"/>
      <point x="294" y="812" type="curve" smooth="yes"/>
      <point x="294" y="846"/>
      <point x="264" y="876"/>
      <point x="230" y="876" type="curve" smooth="yes"/>
      <point x="195" y="876"/>
      <point x="165" y="846"/>
      <point x="165" y="812" type="curve" smooth="yes"/>
      <point x="165" y="778"/>
      <point x="195" y="748"/>
    </contour>
    <contour>
      <point x="62" y="748" type="curve" smooth="yes"/>
      <point x="96" y="748"/>
      <point x="124" y="778"/>
      <point x="124" y="812" type="curve" smooth="yes"/>
      <point x="124" y="846"/>
      <point x="96" y="876"/>
      <point x="62" y="876" type="curve" smooth="yes"/>
      <point x="26" y="876"/>
      <point x="-4" y="846"/>
      <point x="-4" y="812" type="curve" smooth="yes"/>
      <point x="-4" y="778"/>
      <point x="26" y="748"/>
    </contour>
  </outline>
</glyph>
<glyph name="dotaccentcomb.case" format="2">
  <advance width="400"/>
  <anchor x="201" y="700" name="_top"/>
  <anchor x="201" y="921" name="top"/>
  <outline>
    <contour>
      <point x="204" y="741" type="curve" smooth="yes"/>
      <point x="246" y="741"/>
      <point x="276" y="774"/>
      <point x="276" y="815" type="curve" smooth="yes"/>
      <point x="276" y="854"/>
      <point x="246" y="887"/>
      <point x="204" y="887" type="curve" smooth="yes"/>
      <point x="165" y="887"/>
      <point x="132" y="854"/>
      <point x="132" y="815" type="curve" smooth="yes"/>
      <point x="132" y="774"/>
      <point x="165" y="741"/>
    </contour>
  </outline>
</glyph>
<glyph name="f_b.liga" format="2">
  <advance width="919"/>
  <outline>
    <contour>
      <point x="430" y="616" type="curve"/>
      <point x="435" y="710" type="line"/>
      <point x="353" y="707" type="line"/>
      <point x="202" y="716"/>
      <point x="97" y="624"/>
      <point x="80" y="539" type="curve"/>
      <point x="80" y="480" type="line"/>
      <point x="10" y="476" type="line"/>
      <point x="10" y="456" type="line"/>
      <point x="81" y="456" type="line"/>
      <point x="81" y="0" type="line" name="_corner00"/>
      <point x="225" y="0" type="line" name="_corner01"/>
      <point x="225" y="458" type="line"/>
      <point x="292" y="453" type="line"/>
      <point x="346" y="460" type="line"/>
      <point x="346" y="480" type="line"/>
      <point x="224" y="480" type="line"/>
      <point x="224" y="649" type="line"/>
      <point x="289" y="685"/>
      <point x="376" y="677"/>
    </contour>
    <contour>
      <point x="425" y="446" type="line"/>
      <point x="569" y="446" type="line"/>
      <point x="569" y="750" type="line"/>
      <point x="425" y="750" type="line" name="_corner02"/>
    </contour>
    <contour>
      <point x="738" y="211" type="curve" smooth="yes"/>
      <point x="738" y="100"/>
      <point x="707" y="21"/>
      <point x="655" y="21" type="curve" smooth="yes"/>
      <point x="631" y="21"/>
      <point x="599" y="34"/>
      <point x="568" y="72" type="curve"/>
      <point x="569" y="382" type="line"/>
      <point x="597" y="396"/>
      <point x="621" y="404"/>
      <point x="644" y="404" type="curve" smooth="yes"/>
      <point x="692" y="404"/>
      <point x="738" y="329"/>
    </contour>
    <contour>
      <point x="569" y="446" type="line"/>
      <point x="425" y="446" type="line"/>
      <point x="425" y="53" type="line"/>
      <point x="408" y="41" type="line"/>
      <point x="448" y="7"/>
      <point x="526" y="-14"/>
      <point x="632" y="-14" type="curve"/>
      <point x="686" y="0"/>
      <point x="884" y="56"/>
      <point x="884" y="278" type="curve" smooth="yes"/>
      <point x="884" y="386"/>
      <point x="839" y="494"/>
      <point x="711" y="494" type="curve"/>
      <point x="671" y="478"/>
      <point x="605" y="432"/>
      <point x="569" y="397" type="curve"/>
    </contour>
  </outline>
</glyph>
<glyph name="f_f.liga" format="2">
  <advance width="737"/>
  <anchor x="150" y="0" name="bottom"/>
  <anchor x="150" y="750" name="top"/>
  <outline>
    <contour>
      <point x="327" y="633" type="curve"/>
      <point x="375" y="626" type="line"/>
      <point x="453" y="710" type="line"/>
      <point x="400" y="766"/>
      <point x="354" y="771"/>
      <point x="303" y="766" type="curve"/>
      <point x="215" y="733"/>
      <point x="100" y="642"/>
      <point x="80" y="539" type="curve"/>
      <point x="80" y="480" type="line"/>
      <point x="10" y="476" type="line"/>
      <point x="10" y="456" type="line"/>
      <point x="81" y="456" type="line"/>
      <point x="81" y="0" type="line" name="_corner00"/>
      <point x="225" y="0" type="line" name="_corner01"/>
      <point x="225" y="458" type="line"/>
      <point x="410" y="455" type="line"/>
      <point x="464" y="462" type="line"/>
      <point x="467" y="480" type="line"/>
      <point x="224" y="480" type="line"/>
      <point x="224" y="691" type="line"/>
      <point x="235" y="702"/>
      <point x="245" y="708"/>
      <point x="259" y="708" type="curve" smooth="yes"/>
      <point x="279" y="708"/>
      <point x="300" y="696"/>
    </contour>
    <contour>
      <point x="681" y="633" type="curve"/>
      <point x="729" y="626" type="line"/>
      <point x="807" y="710" type="line"/>
      <point x="754" y="766"/>
      <point x="708" y="771"/>
      <point x="657" y="766" type="curve"/>
      <point x="569" y="733"/>
      <point x="455" y="642"/>
      <point x="435" y="539" type="curve"/>
      <point x="435" y="0" type="line" name="_corner02"/>
      <point x="579" y="0" type="line" name="_corner03"/>
      <point x="579" y="458" type="line"/>
      <point x="646" y="453" type="line"/>
      <point x="700" y="460" type="line"/>
      <point x="700" y="480" type="line"/>
      <point x="578" y="480" type="line"/>
      <point x="578" y="691" type="line"/>
      <point x="589" y="702"/>
      <point x="599" y="708"/>
      <point x="613" y="708" type="curve" smooth="yes"/>
      <point x="633" y="708"/>
      <point x="654" y="696"/>
    </contour>
  </outline>
</glyph>
<glyph name="f_f_i.liga" format="2">
  <advance width="1048"/>
  <outline>
    <contour>
      <point x="836" y="595" type="curve"/>
      <point x="884" y="584" type="line"/>
      <point x="981" y="679" type="line"/>
      <point x="930" y="741"/>
      <point x="841" y="763"/>
      <point x="742" y="763" type="curve"/>
      <point x="626" y="729"/>
      <point x="513" y="639"/>
      <point x="481" y="539" type="curve"/>
      <point x="481" y="0" type="line" name="_corner00"/>
      <point x="625" y="0" type="line" name="_corner01"/>
      <point x="625" y="458" type="line"/>
      <point x="803" y="453" type="line"/>
      <point x="857" y="460" type="line"/>
      <point x="857" y="480" type="line"/>
      <point x="624" y="480" type="line"/>
      <point x="624" y="663" type="line"/>
      <point x="641" y="669"/>
      <point x="669" y="678"/>
      <point x="703" y="678" type="curve" smooth="yes"/>
      <point x="753" y="678"/>
      <point x="822" y="658"/>
    </contour>
    <contour>
      <point x="969" y="0" type="line" name="_corner03"/>
      <point x="969" y="480" type="line"/>
      <point x="825" y="480" type="line"/>
      <point x="825" y="0" type="line" name="_corner02"/>
    </contour>
    <contour>
      <point x="327" y="633" type="curve"/>
      <point x="375" y="626" type="line"/>
      <point x="453" y="710" type="line"/>
      <point x="400" y="766"/>
      <point x="354" y="771"/>
      <point x="303" y="766" type="curve"/>
      <point x="215" y="733"/>
      <point x="100" y="642"/>
      <point x="80" y="539" type="curve"/>
      <point x="80" y="480" type="line"/>
      <point x="10" y="476" type="line"/>
      <point x="10" y="456" type="line"/>
      <point x="81" y="456" type="line"/>
      <point x="81" y="0" type="line" name="_corner04"/>
      <point x="225" y="0" type="line" name="_corner05"/>
      <point x="225" y="458" type="line"/>
      <point x="410" y="455" type="line"/>
      <point x="464" y="462" type="line"/>
      <point x="467" y="480" type="line"/>
      <point x="224" y="480" type="line"/>
      <point x="224" y="691" type="line"/>
      <point x="235" y="702"/>
      <point x="245" y="708"/>
      <point x="259" y="708" type="curve" smooth="yes"/>
      <point x="279" y="708"/>
      <point x="300" y="696"/>
    </contour>
  </outline>
</glyph>
<glyph name="f_h.liga" format="2">
  <advance width="953"/>
  <outline>
    <contour>
      <point x="430" y="616" type="curve"/>
      <point x="435" y="710" type="line"/>
      <point x="353" y="707" type="line"/>
      <point x="202" y="716"/>
      <point x="97" y="624"/>
      <point x="80" y="539" type="curve"/>
      <point x="80" y="480" type="line"/>
      <point x="10" y="476" type="line"/>
      <point x="10" y="456" type="line"/>
      <point x="81" y="456" type="line"/>
      <point x="81" y="0" type="line" name="_corner00"/>
      <point x="225" y="0" type="line" name="_corner01"/>
      <point x="225" y="458" type="line"/>
      <point x="292" y="453" type="line"/>
      <point x="346" y="460" type="line"/>
      <point x="346" y="480" type="line"/>
      <point x="224" y="480" type="line"/>
      <point x="224" y="649" type="line"/>
      <point x="289" y="685"/>
      <point x="376" y="677"/>
    </contour>
    <contour>
      <point x="425" y="446" type="line"/>
      <point x="569" y="446" type="line"/>
      <point x="569" y="750" type="line"/>
      <point x="425" y="750" type="line" name="_corner02"/>
    </contour>
    <contour>
      <point x="732" y="259" type="curve" smooth="yes"/>
      <point x="732" y="0" type="line" name="_corner03"/>
      <point x="876" y="0" type="line" name="_corner04"/>
      <point x="876" y="330" type="line" smooth="yes"/>
      <point x="876" y="446"/>
      <point x="826" y="494"/>
      <point x="709" y="494" type="curve"/>
      <point x="655" y="461"/>
      <point x="597" y="422"/>
      <point x="550" y="378" type="curve"/>
      <point x="550" y="365" type="line"/>
      <point x="582" y="389"/>
      <point x="611" y="400"/>
      <point x="641" y="400" type="curve" smooth="yes"/>
      <point x="702" y="400"/>
      <point x="732" y="359"/>
    </contour>
    <contour>
      <point x="425" y="0" type="line" name="_corner06"/>
      <point x="569" y="0" type="line" name="_corner05"/>
      <point x="569" y="384" type="line"/>
      <point x="569" y="384" type="line"/>
      <point x="569" y="480" type="line"/>
      <point x="425" y="480" type="line"/>
    </contour>
  </outline>
</glyph>
<glyph name="hungarumlautcomb.case" format="2">
  <advance width="600"/>
  <anchor x="220" y="517" name="_top"/>
  <anchor x="220" y="770" name="top"/>
  <outline>
    <contour>
      <point x="140" y="572" type="line"/>
      <point x="256" y="708" type="line"/>
      <point x="249" y="717" type="line"/>
      <point x="125" y="714" type="line"/>
      <point x="123" y="579" type="line"/>
    </contour>
    <contour>
      <point x="249" y="569" type="line"/>
      <point x="418" y="698" type="line"/>
      <point x="412" y="707" type="line"/>
      <point x="286" y="716" type="line"/>
      <point x="232" y="578" type="line"/>
    </contour>
  </outline>
</glyph>
